<svg id="Capa_1" enable-background="new 0 0 512 512" height="512" viewBox="0 0 512 512" width="512" xmlns="http://www.w3.org/2000/svg"><g><path d="m437.828 111.139-18.666 272.58h-326.324l-18.666-272.58 179.764-91.338z" fill="#fff5c6"/><ellipse cx="256" cy="232.206" fill="#d78878" rx="95.961" ry="95.699"/><path d="m283.073 140.375c23.34 17.457 38.442 45.273 38.442 76.607 0 52.853-42.963 95.699-95.961 95.699-9.402 0-18.486-1.355-27.073-3.868 16.028 11.988 35.942 19.091 57.519 19.091 52.998 0 95.961-42.846 95.961-95.699 0-43.476-29.074-80.175-68.888-91.83z" fill="#c96e59"/><path d="m226.383 505.911v-75.913h59.234v75.913c0 3.363-2.726 6.089-6.089 6.089h-47.056c-3.363 0-6.089-2.726-6.089-6.089z" fill="#d78878"/><path d="m226.383 429.998v15.223l59.234 15.223v-30.446z" fill="#c96e59"/><path d="m256 181.98c-31.732 0-57.457 25.724-57.457 57.457v69.424c16.018 11.96 35.908 19.044 57.457 19.044s41.439-7.084 57.457-19.044v-69.424c0-31.733-25.725-57.457-57.457-57.457z" fill="#fee97d"/><path d="m260.325 327.803c8.55-.381 17.484-1.91 26.476-4.935.002-.001.004-.001.006-.002 9.113-3.096 18.199-7.7 26.647-14.004l.002-.002v-53.449c-19.058 43.972-69.111 66.949-114.913 53.419v.027c16.706 12.544 38.903 20.09 61.782 18.946z" fill="#fedf30"/><g><g><g fill="#766e6e"><circle cx="233.111" cy="231.018" r="7.611"/><circle cx="278.889" cy="230.511" r="7.611"/></g><path d="m253.965 257.786c11.607 0 19.379 12.04 14.486 22.566-.046.1-.093.2-.14.299-4.606 9.809-10.228 16.991-14.551 21.71-4.31-4.952-9.674-12.151-14.195-21.71-.041-.087-.083-.175-.123-.262-4.937-10.524 2.844-22.603 14.469-22.603z" fill="#fea3c6"/></g></g><path d="m437.828 111.139-30.452-15.126-.958 13.99-144.88-78.159c-3.456-1.865-7.619-1.865-11.075 0l-175.247 94.54 3.324 48.532 171.922-92.746c3.456-1.865 7.619-1.865 11.075 0l117.817 63.559c14.554 7.852 21.979 24.587 17.924 40.619-26.645 105.327-121.948 182.148-234.207 182.148h-71.275l1.042 15.223h326.324l14.299-208.802 3.324-48.532z" fill="#fee97d"/><g fill="#d78878"><path d="m470.635 121.159v23.825c0 8.828-9.43 14.455-17.2 10.263l-191.897-103.523c-3.456-1.865-7.619-1.865-11.075 0l-191.897 103.523c-7.77 4.192-17.2-1.435-17.2-10.263v-23.825c0-4.286 2.352-8.227 6.125-10.263l202.971-109.498c3.456-1.865 7.619-1.865 11.075 0l202.973 109.498c3.773 2.035 6.125 5.976 6.125 10.263z"/><path d="m414.162 429.998h-316.324c-12.78 0-23.14-10.36-23.14-23.14 0-12.78 10.36-23.14 23.14-23.14h316.324c12.78 0 23.14 10.36 23.14 23.14-.001 12.78-10.361 23.14-23.14 23.14z"/></g></g></svg>