<svg id="Capa_1" enable-background="new 0 0 512 512" height="512" viewBox="0 0 512 512" width="512" xmlns="http://www.w3.org/2000/svg"><g><path d="m272.139 47.787 13.043-9.782-29.182-21.886-23.265 17.449c7.321.223 15.069 1.041 23.265 2.482z" fill="#ffbd86"/><path d="m224.008 341.739h63.985v163.051c0 3.982-3.228 7.21-7.21 7.21h-49.565c-3.982 0-7.21-3.228-7.21-7.21z" fill="#fed2a4"/><path d="m270.355 372.637h17.637v-30.898h-63.985v163.051c0 3.982 3.228 7.21 7.21 7.21h23.689v-123.914c0-8.532 6.917-15.449 15.449-15.449z" fill="#ffbd86"/><g><path d="m351.977 439.744h-191.954c-4.266 0-7.725-3.458-7.725-7.725s3.458-7.725 7.725-7.725h191.954c4.266 0 7.725 3.458 7.725 7.725s-3.459 7.725-7.725 7.725z" fill="#6f6571"/></g><path d="m383.969 112.096-127.969-95.977-127.969 95.977v218.249h255.938z" fill="#fed2a4"/><path d="m158.929 132.695 126.253-94.69-29.182-21.886-127.969 95.977v218.249h30.898z" fill="#ffbd86"/><path d="m128.031 256.123h255.938v-64.046h-63.984-127.97-63.984z" fill="#af6e5a"/><path d="m128.031 192.077h30.898v64.047h-30.898z" fill="#965a50"/><path d="m129.442 128.092h253.116l-126.558-92.043z" fill="#af6e5a"/><path d="m165.066 128.092 107.073-80.305-16.139-11.738c-8.196-1.441-15.944-2.258-23.265-2.482l-97.244 72.933c-2.305 6.795-4.315 14.001-6.049 21.591h35.624z" fill="#965a50"/><path d="m408.752 352.038h-305.504c-3.982 0-7.21-3.228-7.21-7.21v-17.573c0-3.982 3.228-7.21 7.21-7.21h305.504c3.982 0 7.21 3.228 7.21 7.21v17.573c0 3.982-3.228 7.21-7.21 7.21z" fill="#af6e5a"/><path d="m96.038 327.256v17.573c0 3.982 3.228 7.21 7.21 7.21h23.689v-31.992h-23.689c-3.982-.001-7.21 3.227-7.21 7.209z" fill="#965a50"/><g><g><path d="m431.945 160.208c-3.288.001-6.605-1.002-9.468-3.084l-166.477-121.075-166.477 121.075c-7.199 5.236-17.28 3.645-22.516-3.555s-3.644-17.281 3.555-22.516l175.957-127.97c5.653-4.111 13.309-4.111 18.961 0l175.958 127.969c7.199 5.236 8.791 15.317 3.555 22.516-3.154 4.338-8.067 6.64-13.048 6.64z" fill="#6f6571"/></g></g><circle cx="256" cy="192.077" fill="#824641" r="63.985"/></g></svg>