<svg id="Capa_1" enable-background="new 0 0 512 512" height="512" viewBox="0 0 512 512" width="512" xmlns="http://www.w3.org/2000/svg" xmlns:xlink="http://www.w3.org/1999/xlink"><linearGradient id="SVGID_1_" gradientUnits="userSpaceOnUse" x1="256" x2="256" y1="448.199" y2="0"><stop offset="0" stop-color="#fd5900"/><stop offset="1" stop-color="#ffde00"/></linearGradient><linearGradient id="SVGID_2_" gradientUnits="userSpaceOnUse" x1="256" x2="256" y1="512" y2="240"><stop offset="0" stop-color="#ffe59a"/><stop offset="1" stop-color="#ffffd5"/></linearGradient><g><g><g><path d="m196 0h-30c-5.2 0-10.02 2.695-12.759 7.119-2.739 4.409-2.988 9.932-.659 14.59 4.16 8.335 9.272 16.128 15.234 23.291h-46.816c-8.291 0-15 6.709-15 15 0 18.926 7.09 36.782 19.556 50.464-40.723 36.738-64.556 89.516-64.556 144.536 0 96.958 72.393 179.956 168.384 193.066 5.303.703 10.562-1.421 13.843-5.64 3.296-4.219 4.087-9.858 2.095-14.81l-29.136-72.583c7.456-3.706 13.77-8.877 19.321-13.433 7.602-6.224 14.15-11.6 20.493-11.6s12.891 5.376 20.493 11.602c5.552 4.556 11.865 9.727 19.321 13.433l-29.136 72.583c-1.992 4.951-1.201 10.591 2.095 14.81 3.192 4.092 8.374 6.353 13.843 5.64 95.991-13.112 168.384-96.11 168.384-193.068 0-140.61-114.39-255-255-255z" fill="url(#SVGID_1_)"/></g></g><g><g><path d="m166 240c-8.284 0-15 6.716-15 15s6.716 15 15 15 15-6.716 15-15-6.716-15-15-15zm180 0c-8.284 0-15 6.716-15 15s6.716 15 15 15 15-6.716 15-15-6.716-15-15-15zm-30 90c-6.343 0-12.891-5.376-20.493-11.602-9.99-8.203-22.442-18.398-39.507-18.398s-29.517 10.195-39.507 18.398c-7.602 6.226-14.15 11.602-20.493 11.602-4.98 0-9.639 2.476-12.422 6.592-2.798 4.131-3.354 9.375-1.494 13.989l59.985 151.971c2.271 5.698 7.793 9.448 13.931 9.448s11.66-3.75 13.931-9.448l59.985-151.971c1.86-4.614 1.304-9.858-1.494-13.989-2.783-4.116-7.442-6.592-12.422-6.592z" fill="url(#SVGID_2_)"/></g></g></g></svg>