<?xml version="1.0" encoding="iso-8859-1"?>
<!-- Generator: Adobe Illustrator 19.0.0, SVG Export Plug-In . SVG Version: 6.00 Build 0)  -->
<svg version="1.1" id="Layer_1" xmlns="http://www.w3.org/2000/svg" xmlns:xlink="http://www.w3.org/1999/xlink" x="0px" y="0px"
	 viewBox="0 0 512.005 512.005" style="enable-background:new 0 0 512.005 512.005;" xml:space="preserve">
<g>
	<path style="fill:#C03000;" d="M173.183,52.635c-0.345,0.144-0.717,0.258-1.091,0.258c-1.924,0.115-3.876,0.201-5.8,0.287
		c-4.853,0.201-9.847,0.402-14.7,1.004c-4.105,0.661-8.211,1.694-12.605,3.13c-4.048,1.292-8.097,2.67-12.058,4.25
		c-4.88,2.211-9.388,4.909-13.868,8.211c-3.215,2.584-6.287,5.713-9.36,9.475c-4.105,5.398-7.609,11.341-10.652,18.231
		c-1.924,4.737-3.359,10.049-4.393,16.308c-0.69,6.173-1.292,12.345-1.723,18.518c-0.258,3.761-0.517,7.523-0.632,11.283
		c-0.115,3.618-0.115,7.206-0.058,10.824c0.058,6,0.661,12.116,1.206,18.031l0.201,2.211l0.603,6.575
		c0.402,4.393,0.804,8.785,1.206,13.149l0.258,2.641c0.258,2.843,0.545,5.684,0.746,8.498l0.201,2.211
		c0.143,1.694,0.287,3.417,0.374,5.139c2.326-0.401,4.593-0.804,6.862-1.033c3.818-0.43,7.522-0.632,11.054-0.632
		c0.833,0,1.694,0,2.527,0.029c2.124,0.086,4.25,0.229,6.345,0.517c2.039,0.258,4.019,0.545,5.915,1.149
		c3.962,1.292,7.494,3.244,10.422,5.742c3.244,2.785,5.971,5.8,8.068,8.929c2.153,3.331,3.905,6.719,5.341,9.618l1.636,3.359
		l0.833,1.665c1.55,3.215,3.502,6.374,5.971,9.618c2.326,2.843,4.335,4.967,6.287,6.69l3.502,3.101
		c1.493,1.32,3.072,2.527,4.651,3.732l3.188,2.24l1.579,1.12c1.091,0.775,2.211,1.493,3.359,2.211l1.723,1.062
		c1.723,1.12,3.473,2.182,5.225,3.244l3.502,2.153c2.383,1.493,4.766,3.015,7.149,4.537c3.847,2.469,7.694,4.938,11.657,7.264
		l3.159,1.866l7.694,4.508c3.876,2.268,7.838,5.082,12.059,8.613l1.866,1.55l2.584,2.182l4.479,3.934l4.45,3.962
		c3.446,3.015,7.35,6.432,10.25,10.566c2.354,3.417,4.393,7.349,6.202,12.002l0.717,1.809c0.919,2.297,1.866,4.651,2.297,7.062
		c0.374,1.895,0.804,4.737,0.603,7.551c-0.115,1.579-0.258,3.158-0.488,4.709c-0.258,2.097-0.546,4.221-0.919,6.287l-0.172,0.976
		c-0.258,1.522-0.546,3.072-1.033,4.537c-1.407,4.192-2.814,7.522-4.364,10.479c-0.89,1.694-1.781,3.388-2.843,4.967l-1.033,1.579
		c6.632,0.574,13.207,0.919,19.81,1.234c3.043,0.143,6.116,0.229,9.159,0.229c2.957,0,5.943-0.087,8.872-0.316
		c5.771-0.43,11.542-1.033,17.312-1.779l2.957-0.517l3.13-0.574c1.292-0.258,2.584-0.603,3.847-0.919l1.465-0.374
		c3.502-0.861,6.948-1.952,10.364-3.101c3.905-1.292,7.091-2.355,10.336-3.331c3.56-1.062,7.207-1.781,10.624-2.355
		c3.072-0.545,6.23-0.89,9.36-1.234l2.068-0.229c3.732-0.402,7.436-0.717,11.198-0.833c1.062-0.058,2.153-0.058,3.215-0.058
		c2.153,0,4.335,0.058,6.489,0.143l3.302,0.087l3.446,0.115c0.948,0.029,1.924,0.029,2.899,0.029c3.359,0,6.948-0.201,10.566-0.632
		h-1.091c5.312-0.574,11.513-1.522,17.456-3.159c3.244-0.89,6.432-1.866,9.618-2.9l7.752-2.469l5.283-1.723
		c0.459-0.144,0.948-0.229,1.436-0.229c1.234,0,2.498,0.517,3.502,1.407l2.843-0.603l2.469-0.545
		c2.182-0.488,4.393-1.004,6.603-1.55l4.45-1.062c-5.599-0.517-10.135-0.948-14.355-1.55c-7.551-1.033-15.073-2.469-22.366-4.278
		l-5.599-1.407l-5.599-1.378l-2.326-0.574c-2.986-0.717-6.029-1.436-8.986-2.326c-4.709-1.407-9.417-2.843-14.126-4.278
		l-11.427-3.473c-1.091-0.345-1.723-1.465-1.465-2.527c0.287-0.861,1.12-1.493,2.01-1.493c5.57,1.55,10.624,3.043,15.705,4.479
		c4.25,1.177,8.498,2.383,12.834,3.244c8.182,1.665,16.911,3.186,26.702,4.68c4.105,0.517,8.182,0.947,12.318,1.292
		c4.306,0.345,8.613,0.43,12.92,0.488h2.872c3.302,0,6.575-0.058,9.876-0.115l2.957-0.087l2.928-0.058l1.436-0.029h1.407
		l0.919,0.029c0.287-0.717,0.488-1.378,0.746-2.01c0.632-1.378,1.378-2.411,2.411-3.273c0.545-0.43,1.062-0.775,1.608-1.091
		l-3.331-0.488c-4.134-0.431-8.24-0.89-12.318-1.55c-3.675-0.574-7.349-1.149-10.938-1.924c-2.498-0.603-4.335-1.033-6.173-1.55
		c-1.781-0.517-3.474-1.12-5.225-1.752l-3.388-1.263c-2.469-0.948-4.938-1.895-7.436-2.67c-7.436-2.24-14.93-4.364-22.423-6.287
		c-2.469-0.603-4.909-1.235-7.35-1.866l-1.665-0.459c-1.033-0.258-2.095-0.545-3.159-0.775l-1.837-0.345
		c-4.393-0.89-8.814-1.781-13.264-2.527c-0.632-0.087-1.206-0.488-1.608-1.12c-0.488-0.746-0.661-1.723-0.459-2.498
		c0.402-1.349,1.521-2.153,2.986-2.153c4.019,0.603,7.322,1.234,10.652,1.866l2.756,0.545c2.527,0.488,4.996,1.062,7.494,1.665
		l3.675,0.89c4.766,1.177,9.504,2.355,14.298,3.417l2.01,0.459c5.053,1.12,10.279,2.268,15.303,3.761
		c1.55,0.459,3.101,0.919,4.651,1.349l0.89,0.287c1.062,0.316,2.153,0.661,3.215,0.89l1.521,0.345
		c0.976,0.229,1.981,0.459,2.986,0.632l4.077,0.603c5.196,0.545,11.37,1.149,17.657,1.378l3.331,0.087
		c1.924,0.029,3.876,0.087,5.8,0.229c-2.613-2.584-5.944-5.025-9.331-7.407c-1.665-1.206-3.359-2.355-5.053-3.502
		c-2.297-1.55-4.622-3.13-6.833-4.795c-2.211-1.608-4.508-3.359-6.632-5.369c-1.665-1.521-3.273-3.13-4.853-4.709l-0.775-0.804
		c-3.675-3.646-7.522-7.149-11.456-10.422c-0.948-0.661-1.895-1.206-2.899-1.752l-1.522,0.545c-3.589,1.234-7.293,2.01-11.456,2.843
		c-4.564,0.919-9.188,1.493-12.69,1.895c-3.215,0.374-6.517,0.517-9.762,0.632l-1.033,0.029c-2.986,0.115-5.944,0.172-8.929,0.172
		l-1.837-0.029c-5.283-0.029-10.02-0.058-14.642-0.603c-2.957-0.316-6.087-1.004-9.847-2.124l-1.12-0.086l-4.967-0.287l-4.967-0.316
		c-2.383-0.144-4.795-0.402-7.178-0.69c-1.608-0.172-3.244-0.374-4.88-0.632c-1.206,1.206-2.124,1.752-3.159,2.039
		c-5.886,2.268-12.316,3.446-19.122,3.446c-2.641,0-5.312-0.172-7.953-0.545c-2.411-0.316-4.795-0.717-7.207-1.177l-1.665-0.287
		c-1.521-0.258-3.072-0.517-4.564-0.861c-2.211-0.545-4.393-1.149-6.546-1.952c-0.804-0.316-1.636-0.632-2.44-0.977
		c-8.585-2.039-16.595-5.771-23.198-10.795c-1.349,1.924-3.302,3.072-5.398,3.072c-6.144-0.345-11.915-0.661-17.599-1.263
		c-6.603-0.717-13.638-1.694-20.327-3.79c-3.56-1.149-7.064-2.498-10.394-4.02c-3.417-1.55-5.915-2.928-8.068-4.479
		c-2.814-2.039-5.771-4.278-8.183-7.006c-2.641-2.928-4.737-5.684-6.374-8.442c-3.331-5.713-5.857-11.686-7.494-17.801
		c-0.861-3.273-1.55-6.632-2.039-10.02l-0.172-1.12c-0.43-2.613-0.833-5.254-1.091-7.895c-0.316-2.957-0.632-6.833-0.374-10.795
		c0.201-3.215,0.459-6.432,0.746-9.618c0.201-2.383,1.866-4.048,4.048-4.048c1.12,0,2.297,0.545,3.101,1.407
		c0.69,0.775,1.033,1.694,0.948,2.641l-0.115,1.465c-0.287,3.159-0.574,6.374-0.603,9.56c0,2.756,0.201,5.655,0.661,9.388v-1.12
		c1.062,8.527,2.613,14.901,4.938,20.643c2.097,4.651,4.306,8.498,6.948,12.058c2.211,2.67,4.537,5.025,7.12,7.149
		c3.043,2.24,6.403,4.192,10.25,5.915c7.006,2.785,14.671,4.766,22.797,5.915c5.225,0.603,10.479,1.033,15.733,1.493
		c-0.574-1.579-1.55-3.13-2.44-4.766c-2.986-5.455-5.541-11.111-7.551-16.824l-3.905-11.169l-1.378-3.876
		c-0.345-1.062-0.345-2.211,0.029-3.359c-0.488-0.229-0.948-0.374-1.407-0.517c-1.292-0.43-2.67-0.919-3.905-1.55
		c-1.091-0.574-2.095-1.234-3.043-2.01c-1.407-1.149-2.727-2.498-4.048-4.163l-0.919-1.149c-0.948-1.177-1.895-2.383-2.584-3.675
		c-2.01-3.675-3.302-7.062-4.02-10.365c-0.603-2.928-1.004-5.915-1.436-8.872l-0.115-0.976c-0.115-0.833-0.172-1.579,0.287-2.383
		c-0.746-0.517-1.665-0.603-2.556-0.775c-1.149-0.201-2.24-0.459-3.359-0.833l-1.608-0.69c-0.345-0.172-0.661-0.345-0.976-0.545
		l-1.407-1.062c-0.89-0.976-1.522-1.636-1.895-2.326c-0.287-0.488-0.545-1.033-0.775-1.579l-0.258-1.206
		c-0.143-0.804-0.172-1.837-0.058-3.072l0.172-2.182c0.086-1.091,0.804-2.182,2.182-2.182c0.603,0,1.234,0.287,1.665,0.746
		c0.374,0.43,0.545,0.919,0.488,1.436c-0.115,1.493-0.172,2.899-0.115,4.393l0.201,0.717c0.316,0.603,0.688,1.177,1.12,1.665
		c0.661,0.517,1.264,0.919,1.924,1.206c0.201,0.087,0.919,0.316,1.665,0.517c0.661,0.172,1.349,0.316,2.039,0.402
		c0.632,0.086,1.292,0.143,1.924,0.172c0.172,0,0.316,0,0.488,0c0.775,0,1.234-0.029,1.694-0.058
		c1.436-0.23,2.928-0.517,4.364-0.919c1.091-0.345,2.153-0.717,3.215-1.149l1.579-0.775c0.661-0.345,1.263-0.746,1.866-1.206
		c-0.058-0.029,0.374-0.517,0.775-1.033c0.661-0.89,1.235-1.808,1.837-2.756c0.661-1.091,1.521-1.579,2.44-1.579
		c0.459,0,0.89,0.114,1.292,0.345c1.234,0.746,1.636,2.326,0.948,3.589l-0.459,0.775c-0.374,0.632-0.717,1.263-1.149,1.837
		l-0.459,0.632c-0.402,0.545-0.804,1.12-1.292,1.579c-0.661,0.661-1.378,1.349-2.182,1.808c-0.833,0.488-1.694,0.919-2.584,1.292
		c-2.354,0.977-4.593,1.636-6.862,1.981c-0.029,0.029-0.545,0.115-0.545,0.143s-0.488,0.115-0.459,0.144
		c0.401,0.402,0.661,0.861,0.717,1.263l0.201,1.32c0.574,4.306,1.177,8.728,2.727,12.891c0.661,1.493,1.062,2.411,1.55,3.244
		c0.545,0.948,1.12,1.808,1.752,2.699c1.808,2.153,3.101,3.675,4.68,5.025c0.861,0.603,1.752,1.12,2.727,1.579
		c1.761,0.688,3.681,1.218,6.187,1.766c-0.063-0.008-0.122-0.014-0.158-0.014c-0.029,0-0.029,0-0.029,0s-0.029,0-0.058,0
		c-0.029,0-0.058,0-0.087,0c0.661,0.115,1.349,0.172,2.01,0.172l1.149-0.058c1.579-0.143,2.642-0.401,3.675-0.746
		c1.091-0.374,2.182-0.746,3.273-1.177c2.297-1.062,4.593-2.153,6.775-3.417c0.89-0.488,1.752-1.033,2.584-1.579
		c-0.545-1.149-0.43-2.527,0.258-3.56c-1.981-0.345-4.048-0.661-6.058-1.55c-1.062-0.459-1.866-0.919-2.612-1.522
		c-0.574-0.402-1.062-0.833-1.522-1.407c-0.661-0.717-1.264-1.608-1.781-2.44c-0.401-0.574-0.746-1.177-1.062-1.808
		c-0.717-1.522-1.349-3.043-1.808-4.68c-0.201-0.775-0.086-1.694,0.345-2.44c0.43-0.775,1.149-1.32,1.952-1.55
		c0.229-0.058,0.546-0.086,0.861-0.086c1.465,0,2.756,0.976,3.159,2.383c0.229,0.833,0.517,1.608,0.833,2.411
		c0.545,1.12,1.149,2.124,1.837,3.159c0.459,0.545,0.89,1.004,1.407,1.465c0.574,0.316,1.149,0.574,1.752,0.804l-0.746-0.459
		c0.861,0.401,1.752,0.632,2.699,0.833c0.545,0.058,1.091,0.086,1.636,0.086c0.546,0,1.091-0.029,1.636-0.086
		c1.493-0.258,2.986-0.574,4.393-1.033c1.349-0.43,2.699-0.948,4.019-1.493c0.69-0.345,1.349-0.69,2.01-1.149
		c0.69-0.603,1.235-1.12,1.694-1.694l0.804-1.062c0.546-0.69,0.861-0.919,1.235-1.062l-0.69-0.402
		c-0.746-0.287-1.55-0.603-2.24-1.033c-1.062-0.717-1.723-1.177-2.24-1.752c-1.149-1.264-2.211-2.613-3.215-3.991
		c-0.488-0.69-0.517-1.752-0.316-2.44c0.201-0.804,0.717-1.493,1.465-1.924c0.488-0.258,1.033-0.402,1.608-0.402
		c0.316,0,0.603,0.029,0.833,0.086c0.948,0.258,1.465,0.861,1.924,1.465c0,0.029,0.632,0.89,0.632,0.89
		c0.661,0.804,1.263,1.522,1.981,2.182c0.459,0.287,0.919,0.574,1.407,0.804c0.459,0.172,0.948,0.316,1.436,0.43l1.32,0.143
		l1.062-0.029c0.833-0.201,1.608-0.401,2.354-0.661c0.661-0.287,1.206-0.545,1.723-0.833c0.488-0.229,1.033-0.374,1.55-0.374
		c1.091,0,2.039,0.545,2.584,1.465c0.833,1.407,0.345,3.273-1.062,4.134c-2.095,1.235-3.847,1.952-5.657,2.411
		c-0.919,0.23-1.895,0.23-2.814,0.23c0.948,1.149,1.378,2.928,0.545,4.134l-0.488,0.661c-0.919,1.349-1.866,2.727-3.13,3.732
		c-1.062,0.861-1.694,1.378-2.411,1.694c-0.632,0.345-1.292,0.632-1.981,0.919c-2.383,0.976-4.508,1.665-6.575,2.068l-1.177,0.258
		l2.498,2.297c1.264,0.919,2.527,1.665,3.934,2.354c0.861,0.374,1.608,0.632,2.411,0.775c0.431,0.086,0.861,0.143,1.32,0.229
		c1.895,0.229,3.186,0.316,4.479,0.316c1.062,0,2.153-0.058,3.215-0.143c1.608-0.287,3.101-0.69,4.564-1.264
		c1.665-0.746,3.273-1.723,5.225-3.158c1.694-1.32,3.359-2.67,4.967-4.048c0.89-0.775,1.694-1.091,2.641-1.091
		c0.976,0,1.952,0.402,2.641,1.091c1.407,1.436,1.407,3.847,0,5.254c-1.781,1.781-3.818,3.446-6.173,5.139
		c-2.153,1.521-3.991,2.584-5.944,3.388c-0.775,0.316-1.579,0.603-2.383,0.861c0.89,3.79,1.837,7.465,2.986,11.169
		c1.177,3.761,2.469,7.551,3.962,11.254c1.895,4.479,4.335,9.676,7.867,14.556c2.211,2.814,4.737,5.341,7.694,7.752l-0.919-0.69
		c4.593,3.531,9.733,6.546,15.303,8.958c5.111,2.01,10.308,3.417,15.417,4.25c3.675,0.459,7.378,0.746,11.082,0.977
		c0.488-0.545,0.976-0.977,1.521-1.292c0.833-0.488,1.694-0.69,2.699-0.69c0.517,0,1.004,0.029,1.55,0.143
		c3.417,0.632,6.804,1.235,10.221,1.809c2.613,0.229,5.254,0.316,7.895,0.316c2.584,0,5.196-0.058,7.81-0.143l2.9-0.086l5.426-0.201
		c2.268-0.115,4.537-0.201,6.804-0.23l4.651-0.115c2.469-0.029,4.938-0.058,7.407-0.172c4.163-0.201,8.355-0.517,12.518-0.919
		c1.808-0.287,3.56-0.603,5.283-1.004c0.861-0.603,1.808-0.919,2.699-0.919c2.01-0.374,3.359-0.89,4.709-1.407
		c3.159-1.465,5.915-3.043,8.384-4.795c-1.004-0.43-2.01-0.746-2.986-1.12c-2.986-1.149-6.345-2.411-9.245-4.163l-1.206-0.717
		c-0.89-0.517-1.808-1.033-2.67-1.636l-1.895-1.378l-1.895-1.378c-2.872-2.067-5.541-4.537-8.01-6.891
		c-4.853-4.537-9.188-9.733-13.409-14.758l-1.723-2.068l-4.278-5.053c-3.675-4.335-7.349-8.671-10.853-13.149
		c-7.665-9.82-15.159-19.81-22.624-29.802l-6.603-8.814l0.804,1.32c-4.421-5.971-8.355-10.68-12.289-14.93
		c-3.847-4.134-8.154-8.126-13.178-12.231c-2.613-1.808-5.196-3.502-7.953-5.053c-2.67-1.465-5.341-2.814-8.097-4.105l-2.986-0.948
		c-3.618-1.091-7.351-2.24-10.853-3.934c-3.446-1.665-6.919-4.105-10.02-7.091l-0.746-0.69c-1.206-1.12-2.44-2.268-3.446-3.56
		c-1.779-2.24-3.502-4.479-5.139-6.804c-1.033-1.465-1.981-2.986-2.928-4.508c-1.981-3.13-3.991-6.144-6.144-9.101l-0.229-0.345
		c0-0.029-0.029-0.029-0.058-0.029c-0.143-0.229-0.316-0.459-0.488-0.688c-3.589-4.593-7.321-9.504-11.082-14.442l-0.775-1.033
		c-2.584-3.043-5.628-6.517-9.159-9.446c-3.302-2.699-6.632-5.341-10.02-7.981c-2.872-2.124-5.713-4.221-8.728-6.144
		c-3.072-1.952-6.202-3.818-9.388-5.628c-7.091-3.905-12.948-6.891-18.403-9.388c-7.378-2.785-15.417-4.909-23.888-6.287
		c-5.915-0.688-11.8-1.349-17.715-1.924C173.212,52.607,173.183,52.607,173.183,52.635L173.183,52.635z M115.761,102.219
		c1.723-1.521,3.589-2.641,5.283-3.159c1.55-0.43,3.043-0.632,4.45-0.632c2.039,0,4.967,0.43,7.35,2.584
		c2.613,2.326,4.421,5.657,5.053,9.331c0.661,3.589-0.258,7.781-2.411,11.254c-2.44,3.818-5.312,6.259-8.498,7.207
		c-1.378,0.402-2.756,0.603-4.105,0.603c-2.814,0-5.397-0.919-7.436-2.612c-1.465-1.206-2.556-2.584-3.445-4.364
		c-0.717-1.436-1.206-3.186-1.436-5.398c-0.374-1.206-0.545-2.556-0.574-4.192c0-1.091,0.229-2.355,0.775-3.905
		c0.316-0.919,0.717-1.694,1.177-2.383l1.608-2.039l0.632-0.861l0.058,0.058C114.698,103.167,115.215,102.678,115.761,102.219
		L115.761,102.219z M248.578,175.347c-2.268-0.115-4.134-1.292-5.655-2.44c-0.804-0.574-1.407-1.149-1.665-2.153
		c-0.258-0.919-0.115-1.924,0.374-2.727c0.43-0.775,1.206-1.378,2.124-1.665c0.287-0.086,0.688-0.086,0.976-0.086
		c0.717,0,1.32,0.143,1.781,0.459c0.688,0.545,1.378,1.004,2.124,1.407l0.833,0.172c0.058,0,0.143,0,0.201,0
		c0.545,0,1.177-0.143,1.752-0.374c0.69-0.229,1.378-0.517,2.068-0.804c0.258-0.086,0.517-0.144,0.833-0.144
		c0.603,0,1.263,0.172,1.781,0.488c0.746,0.459,1.32,1.177,1.579,2.039c0.345,1.292-0.201,3.159-1.579,3.818
		c-0.661,0.345-1.32,0.661-2.01,0.948c-0.69,0.316-1.378,0.574-2.095,0.775c-0.69,0.143-1.436,0.258-2.182,0.345
		C249.41,175.375,248.98,175.347,248.578,175.347L248.578,175.347z M303.157,187.95c-0.833-0.172-1.809-0.402-2.584-0.861
		c-0.574-0.345-1.033-0.661-1.436-1.004c-0.402-0.459-0.775-0.948-1.149-1.436c-0.258-0.43-0.488-0.89-0.717-1.349
		c-0.89-1.781-0.374-3.789,1.234-4.737c0.517-0.287,1.12-0.43,1.781-0.43c1.292,0,2.44,0.632,2.957,1.665
		c0.115,0.316,0.287,0.603,0.43,0.89c0.632,0.431,1.062,0.545,1.493,0.661c0.029,0,0.746,0,0.746,0c0.603,0,1.177-0.058,1.694-0.172
		l-0.258,0.029c1.723-0.287,3.446-0.603,5.168-1.062c0.287-0.058,0.574-0.115,0.861-0.115c1.493,0,2.785,1.004,3.186,2.411
		c0.459,1.723-0.517,3.446-2.326,4.077c-2.268,0.746-4.048,1.206-5.742,1.407l-1.12,0.172l-1.12,0.143h-1.292
		C304.364,188.151,303.761,188.066,303.157,187.95L303.157,187.95z M340.655,212.613c-1.752-0.545-3.589-1.206-5.025-2.411
		c-1.349-1.12-2.383-2.498-3.474-3.905c-0.948-1.32-1.004-2.727-0.775-3.675c0.316-1.062,1.033-1.981,1.952-2.527
		c0.632-0.374,1.349-0.574,2.097-0.574c0.374,0,0.746,0.029,1.149,0.143c1.206,0.345,1.837,1.062,2.527,1.952
		c0.775,0.948,1.32,1.55,1.924,2.153c1.12,0.488,1.781,0.661,2.469,0.833l0.775,0.029c0.861,0,1.723-0.058,2.584-0.115
		c1.091-0.201,1.752-0.316,2.44-0.402c0.43-0.086,0.833-0.143,1.235-0.143c0.746,0,1.378,0.172,2.01,0.517
		c0.948,0.603,1.608,1.493,1.895,2.498c0.287,1.062,0.087,2.326-0.545,3.331c-0.545,0.919-1.407,1.55-2.383,1.723
		c-2.556,0.545-4.909,1.033-7.264,1.033C342.922,213.072,341.746,212.929,340.655,212.613L340.655,212.613z M338.616,252.263
		c-1.809-0.316-4.134-0.861-6.23-2.01c-2.355-1.32-4.105-2.641-5.369-4.077c-1.378-1.579-2.756-3.359-3.474-5.628
		c-0.374-1.292-0.717-2.411-0.89-3.502c-0.172-0.804-0.258-1.579-0.374-2.354c0-0.029-0.058-0.661-0.058-0.661
		c-0.029-0.029-0.087-0.632-0.115-0.632c-4.709-0.201-7.551-4.278-9.847-8.039c-0.459-0.775-0.574-1.694-0.345-2.584
		c0.229-0.919,0.804-1.694,1.579-2.153c0.517-0.316,1.091-0.459,1.723-0.459c1.177,0,2.355,0.632,3.015,1.694
		c0.632,1.062,1.32,2.068,2.067,3.101c0.144,0.172,0.316,0.345,0.517,0.517l-0.058,0.058c0.345,0.287,0.69,0.545,1.149,0.804
		l1.062,0.115c0.287,0,0.545,0,0.833-0.029c1.091-0.143,1.981-0.345,2.756-0.632l1.378-0.517c2.01-0.89,3.388-1.665,4.766-2.556
		c0.488-0.316,1.062-0.488,1.665-0.488c1.206,0,2.383,0.69,2.986,1.694c0.459,0.833,0.574,1.752,0.345,2.613
		c-0.229,0.804-0.69,1.407-1.579,2.039c-2.268,1.579-4.364,2.727-6.632,3.56c0.144,0.574,0.287,1.091,0.345,1.837l0.058,0.201
		c0.316,1.608,0.69,3.215,1.292,4.795c0.172,0.316,0.345,0.603,0.545,0.89c0.717,0.833,1.407,1.55,2.182,2.211
		c1.004,0.688,1.981,1.263,3.043,1.781c1.32,0.459,2.67,0.746,4.077,1.004c0.804,0.058,1.579,0.086,2.383,0.086
		c0.517,0,1.033,0,1.55-0.029c2.095-0.401,3.991-0.948,5.828-1.636c0.517-0.229,1.004-0.488,1.493-0.804
		c0.746-0.603,1.378-1.234,2.01-1.952c0.517-0.775,1.004-1.522,1.465-2.297c0.632-1.004,1.752-1.636,2.928-1.636
		c0.574,0,1.149,0.172,1.665,0.459c1.55,0.919,2.039,2.843,1.177,4.564c-0.661,1.407-1.033,2.182-1.521,2.843l-0.459,0.661
		c-0.517,0.746-1.033,1.522-1.694,2.095c-1.665,1.608-3.56,2.785-5.713,3.618c-2.355,0.919-4.593,1.493-6.776,1.723
		c-0.804,0.086-1.608,0.143-2.411,0.143C341.487,252.694,340.051,252.551,338.616,252.263L338.616,252.263z M297.387,360.56
		c-0.948-0.287-1.493-1.206-1.263-2.24c0.919-4.593,2.01-9.13,3.101-13.667l1.004-4.306c0.229-0.833,1.004-1.407,1.895-1.407
		c1.493,0.345,2.068,1.378,1.837,2.411c-1.407,5.971-2.872,11.944-4.335,17.915c-0.201,0.775-0.948,1.349-1.779,1.349v0.058
		L297.387,360.56L297.387,360.56z M287.711,366.188c-0.976-0.287-1.55-1.263-1.32-2.268c1.292-5.915,2.641-11.772,3.991-17.628
		l1.12-4.852c0.229-0.833,1.033-1.436,1.924-1.436c1.493,0.345,2.095,1.378,1.837,2.44c-1.723,7.494-3.502,14.958-5.283,22.423
		c-0.201,0.804-0.948,1.378-1.781,1.378v0.058L287.711,366.188L287.711,366.188z M306.459,371.701
		c-0.948-0.287-1.465-1.234-1.235-2.182c2.124-8.182,4.364-16.337,6.575-24.491l0.804-2.957c0.23-0.775,0.919-1.292,1.723-1.292
		c1.378,0.316,1.924,1.263,1.694,2.211l-2.095,7.694c-1.809,6.575-3.589,13.178-5.283,19.754c-0.201,0.775-0.948,1.32-1.752,1.32
		v0.058L306.459,371.701L306.459,371.701z M319.925,349.393c-0.345-0.316-0.517-0.833-0.517-1.349
		c0.029-0.459,0.201-0.89,0.517-1.149l1.981-1.608c0.775-0.632,1.177-0.948,1.694-1.091l1.149,0.058
		c0.661,0.087,1.177,0.488,1.436,0.746c0.345,0.345,0.488,0.804,0.632,1.263c0.201,0.861,0.229,1.407,0.143,1.952
		c-0.115,1.895-0.316,4.163-0.89,6.432c-0.316,1.206-0.632,2.411-1.004,3.618c-0.661,2.297-1.349,4.593-2.039,6.891
		c-0.229,0.775-0.948,1.292-1.723,1.292c-0.919-0.201-1.292-0.488-1.521-0.919c-0.229-0.402-0.287-0.861-0.172-1.292l1.895-6.403
		l0.258-0.89l0.603-2.153c0.402-1.465,0.69-2.929,0.948-4.45l0.058-0.775l0.058-0.804l-1.004,0.632
		c-0.402,0.316-0.746,0.517-1.235,0.517C320.729,349.909,320.24,349.737,319.925,349.393L319.925,349.393z"/>
	<path style="fill:#C03000;" d="M274.102,226.538h-0.029c-2.872,2.24-5.312,3.876-7.752,5.139c-3.56,1.837-6.403,3.015-9.217,3.79
		l1.149,3.502c1.981,5.628,4.019,11.485,6.403,17.112c2.383,5.397,4.766,9.618,7.465,13.351c1.866,2.182,3.934,4.221,6.287,6.173
		c3.474,2.556,7.351,4.766,11.829,6.719c7.723,3.101,16.136,4.508,24.26,5.857l3.761,0.632c0.861,0.143,1.636,0.545,2.326,1.177
		l1.206,0.058c1.55,0,3.101-0.086,4.622-0.201c-1.808-1.12-3.589-2.211-5.312-3.388c-6.603-4.564-11.254-9.015-14.643-14.039
		c-3.646-5.426-6.748-11.857-9.762-20.27c-2.24-6.345-4.221-13.178-6.058-20.901l-0.89-0.143c-0.948,0-1.866-0.029-2.814-0.143
		c-2.268-0.258-4.048-0.459-5.685-0.948c-2.469-0.717-4.564-1.665-6.259-2.843l-0.833-0.632
		C274.131,226.538,274.131,226.538,274.102,226.538L274.102,226.538z"/>
</g>
<g>
	<path style="fill:#EC7D4C;" d="M96.812,216.684c-1.866,0.287-3.704,0.661-5.541,1.033l-0.058,3.188
		c-0.029,3.159-0.029,6.23-0.115,9.36c-0.086,3.675-0.258,7.35-0.43,11.025l-0.086,1.952c-0.172,3.188-0.345,6.374-0.43,9.56
		c-0.086,4.25-0.086,8.469-0.058,12.719c0.086,7.322,0.89,14.729,1.665,20.988c1.809,9.245,4.335,18.748,7.522,28.281
		c0.603,1.465,1.235,2.928,1.924,4.335c0.948,1.895,1.952,3.732,2.986,5.57c1.895,3.388,4.048,6.546,6.087,9.417
		c2.01,2.556,3.704,4.651,5.742,6.489c2.326,2.124,4.68,4.192,7.149,6.202c1.723,1.32,2.556,1.981,3.502,2.556l2.211,1.436
		l2.211,1.436c2.297,1.522,4.795,2.785,7.235,3.991l1.465,0.746c5.168,2.613,10.795,4.967,15.332,6.862l2.872,1.206
		c0.029,0-0.23-0.172-0.201-0.201c0-0.058-0.316-0.258-0.345-0.287c5.944,2.727,12.374,5.168,19.122,7.378
		c5.541,1.866,12.116,4.019,19.035,5.915c14.585,4.02,27.993,7.035,40.999,9.217c2.44,0.258,4.88,0.488,7.322,0.717
		c0.316-0.717,0.574-1.206,0.89-1.636l1.781-2.268c2.354-3.215,4.508-7.006,6.719-11.973l0.401-1.091
		c0.316-0.804,0.545-1.436,0.69-2.068c0.43-1.465,0.804-2.899,1.149-4.393c0.574-2.527,1.004-5.025,1.407-7.523
		c0.172-1.32,0.287-2.383,0.287-3.445c0.029-1.264-0.029-2.527-0.115-3.79c-0.345-2.095-0.919-4.335-1.781-6.833
		c-0.717-2.097-1.436-4.192-2.268-6.259l0.229,0.833c-0.833-2.268-1.608-4.048-2.613-5.685c-0.833-1.436-1.723-2.756-2.699-4.105
		c-3.015-3.646-6.575-6.891-9.992-10.02l-2.699-2.44l-0.661-0.574c-3.359-3.015-6.719-6.029-10.279-8.872
		c-3.101-2.383-6.087-4.393-9.676-6.488l-2.124-1.235l-3.417-1.981l-1.636-0.948c-2.814-1.636-5.599-3.273-8.384-4.967l-4.421-2.727
		c-1.723-1.091-3.473-2.153-5.225-3.215c-3.331-1.981-6.69-3.962-10.049-5.915c-5.915-3.474-12.805-7.723-18.977-12.977
		c-2.44-2.067-5.225-4.421-7.551-7.149c-3.647-4.105-6.403-8.182-8.442-12.432c-0.861-1.752-1.694-3.502-2.498-5.254l-0.488-1.033
		c-0.976-2.067-1.781-3.818-2.727-5.455c-1.149-2.067-2.383-4.019-3.79-5.971c-1.752-2.182-3.618-4.134-5.599-5.857
		c-2.039-1.493-4.048-2.699-6.173-3.646c-2.24-0.833-4.766-1.436-8.182-1.952l0.517,0.258c-2.469-0.374-5.111-0.574-8.269-0.574
		C103.99,216.11,100.458,216.312,96.812,216.684L96.812,216.684z M124.632,326.131c-0.374-0.374-0.459-0.804-0.488-1.263
		c-0.115-0.632-0.172-1.292-0.201-1.952c0-0.861,0.058-1.694,0.172-2.527c0.058-0.632,0.115-1.263,0.229-1.895
		c0.143-1.033,0.287-2.039,0.459-3.072c0.229-1.579,0.459-3.158,0.717-4.737l0.316-2.068l0.143-1.004
		c0.746-4.766,1.522-9.533,2.326-14.27c0.058-0.459,0.488-0.919,0.833-1.12c0.287-0.143,0.632-0.229,1.004-0.229
		c0.948,0.143,1.349,0.459,1.665,0.919c0.229,0.517,0.229,0.948,0.144,1.522c-0.89,5.455-1.781,10.94-2.642,16.394l-0.459,2.872
		c-0.402,2.383-0.804,4.795-1.149,7.206c-0.058,0.402-0.115,1.177-0.144,2.01c0,0.661,0.029,1.32,0.086,1.952
		c0.058,0.431-0.086,0.833-0.401,1.177c-0.345,0.402-0.861,0.603-1.349,0.603C125.436,326.648,124.948,326.476,124.632,326.131
		L124.632,326.131z M136.519,326.476c-0.287-0.287-0.459-0.632-0.459-1.004c0.201-7.752,0.229-15.389,0.258-23.026
		c0-1.004,0.775-1.752,1.752-1.752c0.948,0,1.752,0.775,1.752,1.723v2.785v2.095c-0.029,2.095-0.029,4.192-0.115,6.287
		c-0.114,3.905-0.229,7.838-0.316,11.742c-0.029,0.948-0.746,1.665-1.665,1.665C137.266,326.992,136.806,326.791,136.519,326.476
		L136.519,326.476z M148.09,333.682c-0.287-0.287-0.459-0.632-0.459-1.004l0.459-13.781l0.459-13.58
		c0.029-0.948,0.746-1.665,1.665-1.665c0.459,0,0.919,0.201,1.206,0.517c0.345,0.316,0.488,0.717,0.459,1.149l-0.459,13.58
		l-0.459,13.638c-0.029,0.948-0.746,1.665-1.665,1.665C148.836,334.199,148.376,333.997,148.09,333.682L148.09,333.682z
		 M158.77,333.309c-0.287-0.316-0.459-0.69-0.459-1.062l0.23-7.12l0.229-6.833l0.229-6.862c0.029-1.062,0.804-1.837,1.837-1.837
		c0.517,0,1.004,0.201,1.378,0.574c0.345,0.345,0.488,0.804,0.459,1.263l-0.058,2.527c-0.172,6.029-0.345,12.059-0.69,18.117
		c-0.029,1.062-0.804,1.808-1.808,1.808C159.603,333.883,159.115,333.682,158.77,333.309L158.77,333.309z M173.413,330.236
		c-0.804-0.086-1.636-0.545-1.723-1.263c-0.229-1.407-0.517-2.872-0.861-4.25c-0.143-0.717-0.345-1.407-0.574-2.095l-0.402-1.062
		c-0.23-0.517-0.459-1.004-0.69-1.465c-0.143-0.374-0.23-0.661-0.201-0.976c0.143-0.717,0.431-1.12,0.804-1.349
		c0.229-0.143,0.545-0.201,0.861-0.201c0.661,0,1.234,0.316,1.493,0.804c0.746,1.636,1.378,2.986,1.781,4.422
		c0.345,1.752,0.69,3.417,1.004,5.196c0.086,0.43,0.143,0.861-0.143,1.349c-0.23,0.374-0.632,0.661-1.033,0.775l-0.316,0.144
		L173.413,330.236L173.413,330.236z"/>
	<path style="fill:#EC7D4C;" d="M85.471,89.811c-2.612,1.263-5.168,2.67-7.694,4.105c-6.173,3.502-12.26,7.178-18.26,10.911
		c-12.173,7.522-22.653,14.585-32.099,21.648c1.55,0.574,3.101,0.833,4.651,1.12l4.508,0.775c3.446,0.402,6.948,0.545,10.422,0.717
		l2.986,0.144c1.378,0.058,2.756,0.115,4.105,0.115c0.861,0,1.694-0.029,2.556-0.058c1.895-0.115,3.818-0.316,5.742-0.517
		c1.177-0.172,2.153-0.316,3.101-0.545c1.206-0.258,2.355-0.574,3.531-0.948c2.039-0.661,4.048-1.263,6.087-1.837l1.407-7.494
		c1.033-5.886,2.469-12.805,5.082-19.409c1.177-2.928,2.498-5.828,3.962-8.642c0.029-0.029,0-0.058,0-0.086
		c-0.029,0-0.058-0.029-0.058-0.029C85.471,89.782,85.471,89.782,85.471,89.811L85.471,89.811z"/>
	<path style="fill:#EC7D4C;" d="M74.159,131.154c0,0,0,0-0.029,0c-3.589,1.952-6.632,3.159-9.618,3.79
		c-3.876,0.833-7.953,1.235-12.087,1.235c-0.746,0-1.521-0.029-2.268-0.058l-3.159-0.086c-3.589-0.115-7.178-0.229-10.767-0.632
		c2.01,1.32,4.508,2.556,7.006,3.704l1.924,0.861c2.182,0.976,4.364,1.924,6.489,3.015l1.493,0.775
		c2.297,1.177,4.593,2.355,6.948,3.417c2.556,1.033,5.111,2.01,7.723,2.9c1.292,0.43,2.584,0.861,3.876,1.407
		c0.459-2.843,0.688-5.742,1.004-8.613c0.402-3.876,0.948-7.752,1.55-11.628c0-0.029,0-0.058-0.029-0.086
		C74.188,131.154,74.188,131.154,74.159,131.154L74.159,131.154z"/>
</g>
<g>
	<path style="fill:#C97A67;" d="M16.995,371.265c-0.345,0.058-0.632,0.172-0.919,0.258c-1.004,0.517-1.866,1.062-2.756,1.723
		c-1.091,0.948-2.039,1.924-2.957,3.015c-0.976,1.465-1.781,2.928-2.498,4.508c0,0-0.115,0.717-0.115,0.746l0.517,0.632
		c0.948,0.632,1.723,1.062,2.556,1.465c5.512,2.24,11.398,3.704,17.083,5.111l1.895,0.459c2.268,0.574,4.508,1.32,6.69,2.211
		c1.55,0.632,3.072,1.263,4.537,2.039c0.919,0.517,1.752,1.177,2.584,1.837c1.177,1.004,1.608,1.665,1.866,2.383
		c0.43,0.69,0.69,1.436,0.804,2.297c0.804,4.278-1.177,8.756-3.072,12.604c-0.89,1.809-1.837,3.531-2.843,5.254
		c-1.407,2.383-2.957,4.651-4.564,6.919c-0.688,0.976-1.465,1.924-2.24,2.872l-1.004,1.235l-0.948,1.177l-0.977,1.177l-2.211,2.584
		c-1.665,1.952-3.302,3.876-4.909,5.857c-1.752,2.383-3.015,4.45-4.019,6.546c-0.172,0.545-0.345,1.091-0.488,1.636
		c-0.029,0.345-0.029,0.661,0,0.976c0.086,0.545,0.258,1.033,0.43,1.55c0.345,0.69,0.746,1.349,1.177,2.01
		c1.349,1.579,2.872,3.015,4.795,4.566c1.004,0.717,1.981,1.349,3.043,1.924c0.661,0.229,1.32,0.43,2.01,0.603l1.149,0.029h1.147
		c1.407-0.287,2.699-0.632,4.02-1.12c2.556-1.177,5.11-2.727,7.867-4.737c3.991-3.273,7.465-7.206,10.795-10.996l0.69-0.775
		c2.44-2.814,4.938-5.57,7.436-8.326c3.789-4.163,8.814-7.723,14.556-10.279l1.177-0.517c2.268-1.004,4.508-2.039,6.833-2.843
		c4.019-1.349,8.182-2.326,12.374-2.814c2.613-0.345,5.225-0.574,7.81-0.833l3.905-0.374c4.02-0.459,8.039-0.948,12.058-1.465
		c3.876-0.517,7.752-1.033,11.657-1.234l6.173-0.287l5.857-0.258l5.254-0.345l5.455-0.316c3.56-0.229,7.12-0.488,10.68-0.861
		c3.589-0.401,7.178-0.69,10.795-0.861l1.12-0.058c1.206-0.029,2.411-0.087,3.618-0.087l0.746,0.029
		c1.263,0,2.469,0.115,3.704,0.201l0.948,0.087c0.401,0.029,0.775,0.087,1.149,0.172c0.287-0.574,0.459-1.12,0.661-1.636
		c0.661-1.694,1.349-3.445,2.24-5.053c1.32-2.326,3.388-5.713,6.116-8.326c-3.876-0.374-7.752-0.603-11.599-0.833
		c-3.761-0.201-7.522-0.374-11.283-0.374c-3.991,0-7.522,0.201-10.795,0.603l0.919-0.143c-5.684,0.804-11.398,2.039-16.911,3.215
		l-0.804,0.172L147,398.424c-5.196,1.149-10.393,2.268-15.562,3.502c-3.934,0.861-7.838,1.694-11.771,2.44
		c-3.015,0.574-7.551,1.292-11.944,1.292h-1.32c-0.919,0-1.781,0-2.67-0.087c-2.182-0.143-4.709-0.374-7.035-0.976l-0.919-0.23
		c-1.263-0.345-2.556-0.661-3.79-1.033l-0.775-0.258c-3.417-1.062-6.833-2.124-10.106-3.475l-2.411-0.976
		c-1.55-0.632-3.101-1.235-4.593-1.952l-3.991-1.952l-1.924-0.919c-2.24-1.091-4.45-2.297-6.632-3.502l-3.015-1.636l-0.861-0.488
		c-2.986-1.608-5.973-3.244-9.072-4.68c-3.56-1.694-7.149-3.302-10.738-4.88l-5.455-1.981l-4.421-1.608
		c-1.521-0.517-3.043-1.062-4.537-1.636l-2.039-0.775c-1.292-0.488-2.613-1.004-3.934-1.32c-0.029-0.029-0.029-0.029-0.029-0.029
		L16.995,371.265L16.995,371.265z"/>
	<path style="fill:#C97A67;" d="M474.046,396.271c-1.781,0.661-3.589,1.263-5.455,1.723c-3.675,0.89-7.407,1.665-11.111,2.383
		l-2.039,0.431c-1.264,0.287-2.527,0.545-3.79,0.717l-6,0.861c-4.077,0.603-8.24,0.717-12.26,0.833l-2.814,0.029
		c-2.411,0-4.823-0.058-7.206-0.143l-2.095-0.086l-2.124-0.029c-2.814-0.086-5.628-0.144-8.469-0.287
		c-4.25-0.172-8.498-0.43-12.748-0.717c-3.934-0.287-7.895-0.833-11.8-1.378c-3.876-0.545-7.781-1.12-11.686-1.723l-1.004-0.115
		c-3.905-0.488-7.781-0.976-11.714-1.378c-2.814-0.287-5.599-0.488-8.384-0.69l-4.163-0.345c-2.785-0.201-5.599-0.345-8.384-0.431
		l-5.512,2.039c-3.79,1.407-6.977,2.527-10.279,3.446l-1.895,0.517c-1.32,0.374-2.641,0.746-3.991,1.004l-1.837,0.43
		c-1.465,0.316-2.928,0.632-4.393,0.833c-2.727,0.402-5.426,0.804-8.153,1.177c-0.345,1.149-1.033,2.095-2.01,2.727
		c-0.459,0.287-0.919,0.574-1.378,0.89c-1.004,0.833-1.924,1.752-2.843,2.872c-1.55,2.097-2.872,4.364-3.934,6.719
		c1.292-0.258,2.268-0.345,3.188-0.402l0.89-0.058c0.948-0.115,1.866-0.229,2.814-0.345l1.465-0.172
		c2.785-0.374,5.599-0.545,8.671-0.574l1.608-0.029c4.737,0,9.475,0.115,14.184,0.201l2.584,0.058
		c6.488,0.115,13.006,0.172,19.495,0.172l8.154,0.058c3.618,0.029,7.235,0.086,10.853,0.086h9.847c4.909,0,9.819,0,14.758,0.058
		c3.675,0,7.322,0.058,10.996,0.087c4.393,0.058,8.814,0.115,13.207,0.115c0,0,0,0,0.029,0c7.378,0,14.384-0.545,21.161-1.062
		l3.072-0.229c3.789-0.287,7.149-0.545,10.566-0.717l1.263-0.087c4.335-0.229,8.728-0.459,13.064-0.948
		c3.962-0.661,7.465-1.608,10.767-2.928c1.149-0.545,2.24-1.149,3.302-1.866l0.545-0.603c0.402-1.149,0.69-2.326,0.948-3.56
		c0.087-1.723,0-3.502-0.287-5.742c-0.345-1.665-0.717-3.215-1.263-4.766c-0.229-0.43-0.459-0.833-0.717-1.206
		c-0.029-0.029-0.459-0.431-0.488-0.431C477.749,394.549,475.97,395.525,474.046,396.271L474.046,396.271z"/>
</g>
<g>
	<path style="fill:#BD4932;" d="M209.991,397.104c-0.316,0.086-0.632,0.115-0.948,0.115c-0.23,0-0.488-0.029-0.717-0.058
		c-0.258-0.029-0.459-0.029-0.661-0.029c-0.632,0-0.976,0.058-1.32,0.143l0.488-0.029c-0.545,0.144-1.091,0.374-1.636,0.632
		l0.746-0.316c-0.775,0.402-1.493,0.861-2.211,1.349c-1.206,1.062-2.211,2.153-3.188,3.388c-1.579,2.24-2.814,4.421-3.789,6.632
		c-0.804,2.039-1.378,3.934-1.781,5.771c-0.087,0.861-0.087,1.636-0.058,2.469c0.172,0.775,0.345,1.493,0.603,2.211
		c0.143,0.316,0.345,0.632,0.545,0.948c0.603,0.717,1.206,1.349,1.895,1.924c1.12,0.69,2.211,1.292,3.388,1.866
		c1.55,0.603,3.589,1.349,5.684,1.808c0.029,0,0.603-0.517,0.632-0.517c0.459-0.746,0.833-1.436,1.177-2.211
		c0.804-2.297,1.235-4.68,1.665-7.006l0.345-1.809c0.632-3.474,1.234-6.603,2.297-9.647c0.833-2.355,2.067-4.278,3.704-5.771
		l-1.407-0.459l-5.426-1.407c0,0,0-0.029-0.029-0.029L209.991,397.104L209.991,397.104z"/>
	<path style="fill:#BD4932;" d="M229.945,401.87c-0.029,0-0.058,0-0.058,0.029c-0.603,0.775-1.407,1.32-2.354,1.636l-1.752,0.574
		c-1.694,1.407-3.215,2.928-4.564,4.564c-0.603,1.866-1.033,3.733-1.465,5.628c-0.229,0.976-0.402,1.952-0.574,2.899
		c-0.258,1.378-0.488,2.727-0.804,4.077c-0.258,1.062-0.488,2.01-0.775,2.928c0.143,0.488,0.287,0.948,0.459,1.436
		c0.143,0.316,0.316,0.632,0.517,0.919c0.603,0.717,1.235,1.349,1.924,1.924c1.292,0.833,2.556,1.55,3.934,2.211
		c0.775,0.316,1.608,0.632,2.44,0.861l0.804-0.172c1.292-0.948,1.895-1.579,2.469-2.268c0.833-1.32,1.522-2.641,2.153-4.02
		c0.488-1.292,0.976-2.613,1.407-3.905l0.574-1.665c0.316-0.89,0.603-1.781,0.948-2.67c1.149-2.814,2.153-5.369,3.646-7.58
		c1.234-1.809,2.612-3.733,4.306-5.283l-3.789-0.632l-1.895-0.229c-1.465-0.172-2.9-0.374-4.335-0.661l-1.608-0.287l-1.579-0.316
		C229.945,401.87,229.945,401.87,229.945,401.87L229.945,401.87z"/>
	<path style="fill:#BD4932;" d="M256.732,405.287l0.086,0.029l-0.374,0.603c-0.402,0.661-0.919,1.177-1.608,1.579
		c-1.608,0.717-3.159,1.493-4.651,2.469l-0.517,0.603c-1.694,2.24-3.043,4.479-4.163,6.891c-0.574,1.407-1.033,2.814-1.349,4.335
		c-0.086,0.775-0.058,1.521-0.029,2.268c0.029,0,0.029-0.029,0.029-0.029c0.029,0.603,0.172,1.177,0.402,1.781
		c0.746,1.55,1.235,2.355,1.837,3.215c0.603,0.69,1.234,1.263,1.924,1.837c1.436,0.976,2.928,1.837,4.479,2.584l0.746-0.144
		c0.861-0.69,1.378-1.206,1.924-1.808c0.717-1.033,1.407-2.097,1.952-3.244c0.574-1.12,1.091-2.297,1.579-3.474
		c0.517-1.235,1.004-2.498,1.465-3.733c0.488-1.263,0.976-2.498,1.465-3.733c1.206-2.843,2.153-5.139,3.417-7.264
		c0.948-1.522,1.694-2.756,2.641-3.789l-4.508-0.488l-3.015-0.229l-3.646-0.316C256.79,405.23,256.761,405.258,256.732,405.287
		L256.732,405.287z"/>
	<path style="fill:#BD4932;" d="M288.114,406.779c-2.068,0.058-4.163,0.087-6.231,0.087h-1.062c-0.316,0.287-0.603,0.517-0.89,0.717
		c-0.69,0.459-1.378,0.919-2.067,1.407l-1.263,1.781c-1.292,1.808-2.153,3.043-2.872,4.393c-0.603,1.12-1.12,2.268-1.636,3.446
		c-0.401,1.12-0.717,2.24-1.004,3.417c-0.086,1.12-0.115,2.153-0.029,3.273c0.087,0.517,0.258,0.976,0.43,1.465
		c0.287,0.746,0.661,1.407,1.149,2.01c0.345,0.402,0.574,0.661,0.861,0.919c0.661,0.488,1.263,0.861,1.981,1.206
		c0.345,0.115,0.717,0.201,1.091,0.287c0.029,0,1.177,0.058,1.206,0.058c0.029,0,0.029,0,0.029,0
		c0.401-0.115,0.833-0.23,1.234-0.374c-0.029,0-0.029,0-0.058,0c0.374-0.115,0.717-0.316,1.004-0.545
		c0.688-0.545,1.263-1.12,1.808-1.752c1.033-1.579,1.924-3.159,2.67-4.853l1.436-3.646c0.717-1.866,1.436-3.732,2.211-5.57
		c1.407-3.273,2.67-5.657,4.163-7.781c0.029-0.029,0.029-0.058,0.029-0.087c-0.029,0-0.058-0.029-0.086-0.029
		C290.841,406.694,289.492,406.751,288.114,406.779L288.114,406.779z"/>
</g>
<g>
	<path style="fill:#161616;" d="M511.686,337.563c-0.43-1.493-1.033-2.872-1.924-4.134c-1.033-1.407-2.182-2.584-3.475-3.762
		c-1.579-1.436-3.359-2.67-5.082-3.962c-1.809-1.349-3.675-2.67-5.541-3.962c-4.421-2.986-8.901-5.828-13.436-8.585
		c-3.934-2.383-7.895-4.68-11.657-7.349c-3.273-2.699-6.432-5.57-9.704-8.326c-1.837-1.522-3.675-3.043-5.512-4.566
		c-0.804-0.667-1.626-1.294-2.441-1.94c1.249-0.725,2.474-1.531,3.675-2.309c0.804-0.517,1.55-1.091,2.326-1.665
		c1.952-1.378,4.192-2.986,5.455-5.082c1.723-2.814,2.814-6.603,0.976-9.647c-1.149-1.924-2.613-3.186-4.393-4.45
		c-1.981-1.407-4.077-2.556-6.202-3.761c-2.182-1.235-4.421-2.411-6.518-3.789c-2.01-1.32-3.905-2.67-5.828-4.105
		c-2.727-2.355-5.426-4.709-7.924-7.293c-2.843-2.899-5.599-5.886-8.269-8.929c-5.254-6.058-10.479-12.116-15.82-18.088
		c-5.168-5.771-10.107-11.771-15.045-17.744c-4.766-5.771-9.676-11.398-14.442-17.169c-8.728-10.624-17.37-21.419-26.816-31.438
		c-4.852-5.111-10.163-9.733-15.82-13.925c-2.756-2.01-5.512-4.077-8.413-5.886c-3.502-2.182-7.12-4.105-10.479-6.517
		c-2.24-1.808-4.393-3.704-6.46-5.684c-2.01-1.895-3.79-3.905-5.541-6c-2.326-3.072-4.622-6.144-6.977-9.188
		c-2.268-2.957-4.823-5.713-7.321-8.442c-5.341-5.8-10.336-11.944-16.165-17.256c-3.043-2.756-6.432-5.196-9.762-7.608
		c-3.273-2.326-6.546-4.709-9.934-6.948c-6.432-4.221-13.207-7.866-20.213-11.111c-3.761-1.723-7.551-3.417-11.341-5.082
		c-3.618-1.579-7.35-3.188-11.197-4.134c-7.838-1.924-15.849-3.475-23.946-3.876c-3.905-0.201-7.81-0.258-11.743-0.401
		c-2.383-0.058-4.795-0.172-7.178-0.172c-1.349,0-2.699,0.029-4.048,0.115c-4.019,0.229-8.068,1.091-12.029,1.781
		c-3.417,0.603-6.891,1.32-10.221,2.383c-3.999,1.292-7.879,2.91-11.718,4.618c-2.098,0.566-4.187,1.171-6.255,1.779
		c-10.422,3.015-20.097,8.671-27.793,16.337c-2.458,2.439-4.645,5.168-6.714,7.978c-3.396,1.446-6.786,2.885-10.168,4.396
		c-3.79,1.665-7.436,3.733-11.083,5.713c-6.632,3.589-13.121,7.436-19.609,11.254c-6.977,4.105-13.723,8.556-20.384,13.178
		c-2.986,2.039-5.915,4.134-8.872,6.23c-1.436,1.004-2.872,2.01-4.306,3.043c-1.091,0.775-2.153,1.608-3.13,2.556
		c-0.545,0.517-1.062,1.292-1.378,1.981c-0.43,0.746-0.632,1.55-0.632,2.411c0.029,0.661,0.086,1.32,0.201,2.01
		c0.258,0.717,0.545,1.407,0.861,2.095c0.345,0.574,0.717,1.12,1.177,1.636c0.746,0.947,1.521,1.779,2.44,2.612
		c1.808,1.579,3.876,2.814,5.915,4.077c2.153,1.378,4.277,2.785,6.46,4.105c4.593,2.814,9.388,5.283,14.068,7.953
		c2.182,1.263,4.364,2.527,6.575,3.732c2.642,1.436,5.455,2.584,8.24,3.733c3.942,1.634,8.169,3.145,12.441,3.706
		c0.016,8.377,0.368,16.759,0.852,25.12c0.459,8.039,1.033,16.078,1.206,24.117c0.201,8.211-0.115,16.394-0.517,24.576
		c-0.345,7.494-0.717,15.045-0.287,22.539c0.258,4.45,0.603,8.901,1.292,13.293c0.603,3.818,1.149,7.665,2.095,11.398
		c0.919,3.675,1.895,7.351,3.188,10.911c1.407,3.905,2.928,7.752,4.479,11.599c1.522,3.847,2.928,7.81,4.824,11.484
		c1.837,3.589,3.818,7.091,5.943,10.537c4.048,6.603,8.498,13.207,14.155,18.605c5.971,5.684,12.374,10.853,19.409,15.217
		c6.632,4.134,13.752,7.465,20.845,10.795c7.407,3.502,14.872,6.833,22.539,9.733c2.911,1.105,5.826,2.177,8.744,3.239
		c-6.723-0.27-13.441-0.218-20.142,0.895c-11.312,1.866-22.595,3.991-33.936,5.713c0.058,0,0.115,0,0.172,0
		c-2.785,0.374-5.599,0.746-8.384,0.804c-1.608,0.029-3.244,0.086-4.853,0c-1.608-0.029-3.186-0.172-4.795-0.316
		c-2.153-0.316-4.278-0.661-6.403-1.177c-2.182-0.545-4.307-1.32-6.432-2.01c-3.474-1.091-6.862-2.469-10.221-3.761
		c-1.521-0.661-3.043-1.32-4.564-1.981c-1.866-0.804-3.704-1.779-5.541-2.67c-3.13-1.521-6.173-3.215-9.274-4.824
		c-3.618-1.895-7.235-3.675-10.911-5.426c-4.163-1.981-8.527-3.56-12.863-5.139c-3.531-1.292-7.235-2.182-10.911-3.101
		c-1.723-0.43-3.474-0.775-5.254-1.177c-2.44-0.488-4.996-1.033-7.494-1.033c-0.374,0-0.717,0-1.091,0.029
		c-5.025,0.316-8.958,4.163-12.002,7.81c-1.521,1.808-2.727,3.847-3.818,5.944c-0.43,0.804-0.861,1.608-1.177,2.469
		c-0.401,1.177-0.574,2.297-0.488,3.56c0.258,4.45,3.991,7.378,7.551,9.388c3.13,1.752,6.517,2.986,9.847,4.25
		c3.101,1.206,6.23,2.326,9.331,3.502c2.095,0.976,4.077,2.039,5.971,3.302c-0.058,0.143-0.086,0.258-0.144,0.402
		c-1.493,3.186-3.215,6.23-5.053,9.302c-1.091,1.809-2.354,3.475-3.502,5.225c-0.804,1.033-1.579,2.039-2.355,3.072
		c-0.04,0.051-0.085,0.101-0.13,0.152c-0.093,0.121-0.186,0.242-0.279,0.363c0.003-0.008,0.007-0.015,0.01-0.024
		c0.008-0.01,0.017-0.022,0.027-0.032c-0.008,0.008-0.015,0.015-0.022,0.023c0.006-0.014,0.012-0.03,0.022-0.052
		c-0.029,0.058-0.086,0.143-0.144,0.201c-1.924,2.411-3.876,4.823-5.742,7.293c-4.019,5.341-7.781,11.427-7.953,18.318
		c-0.086,3.244,1.206,6.46,2.899,9.159c1.723,2.727,4.221,4.824,6.748,6.748c2.383,1.866,5.082,3.761,8.01,4.68
		c3.072,1.004,6.259,1.32,9.446,0.632c6.546-1.349,11.944-5.082,17.054-9.188c3.618-2.9,6.632-6.403,9.733-9.791
		c3.646-4.048,7.293-8.269,11.513-11.771c1.981-1.465,4.077-2.785,6.374-3.789c0.861-0.374,1.723-0.746,2.613-1.12
		c1.263-0.488,2.527-0.948,3.79-1.436c3.475-1.263,7.064-2.095,10.709-2.641c6.517-0.775,13.093-0.775,19.609-1.407
		c6.546-0.632,13.064-1.292,19.609-1.55c12.345-0.488,24.605-1.493,36.836-3.302c5.397-0.661,10.853-0.919,16.25-1.809
		c0.061-0.01,0.11-0.033,0.171-0.044c0.089,0.387,0.112,0.773,0.232,1.164c0.603,2.01,1.981,3.675,3.331,5.254
		c1.12,1.292,2.699,2.268,4.105,3.186c1.981,1.32,4.25,2.24,6.432,3.13c0.603,0.287,1.234,0.517,1.866,0.717
		c0.861,0.316,1.809,0.345,2.727,0.43c0.374-0.058,0.775-0.087,1.149-0.143c0.632-0.029,1.206-0.201,1.752-0.488
		c0.977-0.374,1.866-0.89,2.642-1.608c0.382-0.356,0.686-0.76,1.019-1.146c0.408,0.552,0.833,1.096,1.277,1.634
		c0.919,1.091,2.211,1.924,3.331,2.785c1.522,1.177,3.188,2.095,4.853,3.072c1.436,0.833,3.101,1.033,4.737,1.004
		c1.665-0.058,3.302-0.89,4.709-1.723c0.632-0.488,1.234-0.948,1.837-1.436c0.632-0.603,1.235-1.206,1.752-1.895
		c1.206-1.407,2.124-2.986,2.957-4.593c0.108-0.208,0.17-0.437,0.271-0.648c0.586,1.499,1.399,2.885,2.37,4.179
		c1.895,2.498,4.537,4.364,7.12,6.087c0.976,0.632,2.01,1.091,3.159,1.206c0.661,0.115,1.292,0.115,1.952-0.058
		c0.947-0.143,1.895-0.374,2.756-0.861c1.177-0.69,2.211-1.493,3.186-2.411c0.517-0.488,0.976-1.033,1.407-1.608
		c0.632-0.833,1.234-1.694,1.808-2.584c0.804-1.235,1.407-2.641,2.067-3.962c0.381-0.789,0.709-1.627,1.061-2.448
		c0.234,1.684,0.9,3.177,1.695,4.659c0.746,1.407,1.952,2.584,3.188,3.56c1.263,1.004,2.641,1.55,4.163,2.068
		c0.717,0.115,1.436,0.201,2.124,0.287c0.976-0.029,1.895-0.143,2.872-0.316c0.574-0.143,1.177-0.374,1.723-0.632
		c1.004-0.488,1.952-1.033,2.814-1.752c0.661-0.488,1.263-1.062,1.781-1.694c0.746-0.804,1.407-1.809,2.01-2.727
		c1.149-1.694,1.981-3.56,2.814-5.455c0.098-0.217,0.196-0.436,0.294-0.654c0.631,1.513,2.13,2.627,3.868,2.606
		c6.23-0.058,12.461,0.374,18.719,0.402c7.407,0.029,14.787,0.201,22.165,0.316c7.953,0.144,15.878,0.115,23.801,0.201
		c8.039,0.087,16.049,0.058,24.06,0.058c8.01,0,15.992,0.087,24.002,0.172c8.097,0.087,16.194-0.258,24.26-0.804
		c7.838-0.517,15.647-1.292,23.457-1.837c6.432-0.43,12.891-1.062,19.064-2.986c2.355-0.746,4.651-1.781,6.833-2.899
		c1.808-0.948,3.474-2.297,4.795-3.847c0.69-0.804,1.091-1.55,1.465-2.556c0.374-0.919,0.517-1.837,0.661-2.814
		c0.374-2.355,0.401-4.68,0.172-7.064c-0.287-3.13-0.948-6.345-1.866-9.331c-1.264-4.077-4.278-7.924-8.729-8.498
		c-0.775-0.115-1.55-0.143-2.355-0.143c-1.292,0-2.613,0.115-3.962,0.258c-2.211,0.258-4.45,0.545-6.661,0.861
		c-7.924,1.149-15.733,2.957-23.63,4.364c-1.465,0.172-2.928,0.345-4.364,0.517c-2.01,0.258-4.077,0.345-6.116,0.488
		c-3.818,0.287-7.665,0.402-11.484,0.574c-3.675,0.144-7.351,0.287-10.996,0.374c-3.847,0.086-7.723,0.201-11.57,0.029
		c-4.163-0.143-8.326-0.345-12.518-0.661c-3.56-0.258-7.12-0.661-10.709-0.948c-4.278-0.345-8.527-0.632-12.805-0.833
		c-0.389-0.02-0.777-0.024-1.166-0.043c3.597-0.805,7.203-1.566,10.841-2.168c1.55-0.172,3.101-0.345,4.651-0.402
		c2.24-0.058,4.479-0.115,6.69-0.172c2.153-0.058,4.306-0.029,6.46-0.029c4.709-0.029,9.36-0.287,14.039-0.948
		c5.886-0.804,11.743-1.981,17.485-3.531c3.415-0.914,6.775-2.11,10.088-3.319c0.198-0.025,0.393,0.016,0.592-0.035
		c9.647-2.44,19.438-4.048,29.113-6.202c4.221-0.919,8.413-1.808,12.605-2.727c4.564-0.948,9.217-1.981,13.064-4.737
		c2.44-1.752,4.221-4.105,5.225-6.919c0.459-1.292,0.775-2.612,1.062-3.934v-0.029c0.203-0.025,0.379-0.045,0.557-0.051
		c2.681-0.314,5.337-0.75,7.942-1.528c2.899-0.89,5.541-2.498,7.551-4.737C511.025,345.804,512.748,341.296,511.686,337.563z
		 M71.719,151.424c-0.006-0.002-0.013-0.005-0.018-0.008c-0.003,0.022-0.006,0.044-0.01,0.065c-1.292-0.545-2.584-0.977-3.876-1.407
		c-2.612-0.89-5.168-1.866-7.723-2.9c-2.354-1.062-4.651-2.24-6.948-3.417l-1.493-0.775c-2.124-1.091-4.307-2.039-6.489-3.015
		l-1.924-0.861c-1.535-0.706-3.07-1.444-4.491-2.215c-1-0.487-1.997-0.985-2.996-1.48c0.16,0.02,0.322,0.059,0.481,0.077
		c0.053,0.006,0.106,0.012,0.159,0.017c-0.053-0.035-0.107-0.069-0.159-0.103c3.589,0.401,7.178,0.517,10.767,0.632l3.158,0.086
		c0.746,0.029,1.521,0.058,2.268,0.058c4.134,0,8.211-0.402,12.087-1.235c2.986-0.632,6.029-1.837,9.618-3.79
		c0.029,0,0.029,0,0.029,0c0.014,0,0.022,0,0.029,0c0,0,0,0,0.029,0c0.029,0.029,0.029,0.058,0.029,0.086
		c-0.603,3.876-1.149,7.752-1.55,11.628c-0.201,1.752-0.345,3.531-0.545,5.283c-0.084,1.135-0.098,2.272-0.161,3.408
		C71.893,151.519,71.815,151.464,71.719,151.424z M76.513,117.947l-1.397,7.437c-0.003,0.001-0.007-0.002-0.01-0.001v0.058
		c-2.039,0.574-4.048,1.177-6.087,1.837c-1.177,0.374-2.326,0.688-3.531,0.948c-0.948,0.229-1.924,0.374-3.101,0.545
		c-1.924,0.201-3.847,0.402-5.742,0.517c-0.861,0.029-1.694,0.058-2.556,0.058c-1.349,0-2.727-0.058-4.105-0.115l-2.986-0.144
		c-3.475-0.172-6.977-0.316-10.422-0.717l-4.508-0.775c-1.292-0.229-2.584-0.459-3.876-0.861c-0.238-0.061-0.475-0.148-0.713-0.211
		c0.008-0.007,0.016-0.012,0.024-0.018c-0.029,0-0.058-0.029-0.086-0.029c9.446-7.062,19.925-14.126,32.099-21.648
		c6-3.732,12.087-7.407,18.26-10.911c2.527-1.436,5.082-2.843,7.694-4.105c0-0.029,0-0.029,0.029-0.029c0,0,0.02,0.009,0.035,0.017
		c-0.002,0.005-0.005,0.007-0.007,0.012h0.029c0,0.009-0.003,0.02,0,0.029c0.007,0.02,0.02,0.038,0,0.058
		c-1.465,2.814-2.785,5.713-3.962,8.642C78.982,105.142,77.547,112.061,76.513,117.947z M161.182,366.211
		c0-0.029-0.029-0.029-0.029-0.029c-1.12-0.459-2.268-0.89-3.359-1.349l0.229,0.144l-0.172-0.087
		c0.058,0.058,0.172,0.144,0.143,0.144l-2.872-1.206c-4.537-1.895-10.163-4.25-15.332-6.862l-1.465-0.746
		c-2.44-1.206-4.938-2.469-7.235-3.991l-2.211-1.436l-2.211-1.436c-0.948-0.574-1.781-1.234-3.502-2.556
		c-2.469-2.01-4.824-4.077-7.149-6.202c-2.039-1.837-3.732-3.934-5.742-6.489c-2.039-2.872-4.192-6.029-6.087-9.417
		c-1.033-1.837-2.039-3.675-2.986-5.57c-0.688-1.407-1.32-2.872-1.924-4.335c-3.188-9.533-5.713-19.035-7.522-28.281
		c-0.775-6.259-1.579-13.667-1.665-20.988c-0.029-4.25-0.029-8.469,0.058-12.719c0.086-3.188,0.258-6.374,0.43-9.56l0.086-1.952
		c0.172-3.675,0.345-7.35,0.43-11.025c0.086-3.13,0.086-6.202,0.115-9.36l0.054-3.036l0,0l0.002-0.15h0.029c0-0.002,0-0.003,0-0.006
		c1.828-0.371,3.656-0.743,5.512-1.028c3.646-0.374,7.178-0.574,10.451-0.574c2.985,0,5.507,0.18,7.859,0.514
		c-0.036-0.008-0.073-0.016-0.107-0.027c0.158,0.027,0.34,0.053,0.503,0.08l-0.036-0.018l-0.467-0.148
		c0.083,0.013,0.165,0.025,0.247,0.038l-0.247-0.123c3.417,0.517,5.944,1.12,8.182,1.952c2.124,0.948,4.134,2.153,6.173,3.646
		c1.981,1.723,3.847,3.675,5.599,5.857c1.407,1.952,2.641,3.905,3.79,5.971c0.948,1.636,1.752,3.388,2.727,5.455l0.488,1.033
		c0.804,1.752,1.636,3.502,2.498,5.254c2.039,4.25,4.795,8.326,8.442,12.432c2.326,2.727,5.11,5.082,7.551,7.149
		c6.173,5.254,13.064,9.504,18.977,12.977c3.359,1.952,6.719,3.934,10.049,5.915c1.752,1.062,3.502,2.124,5.225,3.215l4.421,2.727
		c2.785,1.694,5.57,3.331,8.384,4.967l1.636,0.948l3.417,1.981l2.124,1.235c3.589,2.095,6.575,4.105,9.676,6.488
		c3.56,2.843,6.919,5.857,10.279,8.872l0.661,0.574l2.699,2.44c3.417,3.13,6.977,6.374,9.992,10.02
		c0.976,1.349,1.866,2.67,2.699,4.105c0.797,1.297,1.45,2.686,2.1,4.336c0.127,0.291,0.255,0.588,0.387,0.894l-0.104-0.377
		c0.833,2.068,1.55,4.163,2.268,6.259c0.861,2.498,1.436,4.737,1.781,6.833c0.086,1.263,0.143,2.527,0.115,3.79
		c0,1.062-0.115,2.124-0.287,3.446c-0.402,2.498-0.833,4.996-1.407,7.522c-0.345,1.493-0.717,2.928-1.149,4.393
		c-0.144,0.632-0.374,1.263-0.69,2.067l-0.401,1.091c-2.211,4.967-4.364,8.756-6.719,11.973l-1.781,2.268
		c-0.283,0.385-0.524,0.864-0.797,1.465c-0.002,0-0.005,0-0.007,0c-0.029,0.058-0.058,0.115-0.086,0.172
		c-2.44-0.229-4.88-0.459-7.321-0.717c-13.006-2.182-26.415-5.196-40.999-9.217c-6.919-1.895-13.494-4.048-19.035-5.915
		C171.231,370.173,166.063,368.278,161.182,366.211z M20.957,421.796c0.097-0.121,0.194-0.243,0.292-0.364
		c-0.002,0.006-0.003,0.01-0.003,0.016c-0.164,0.212-0.326,0.424-0.489,0.635C20.814,421.996,20.9,421.91,20.957,421.796z
		 M187.338,410.311c-1.235-0.087-2.44-0.201-3.704-0.201l-0.746-0.029c-1.206,0-2.411,0.058-3.618,0.087l-1.12,0.058
		c-3.618,0.172-7.207,0.459-10.795,0.861c-3.56,0.374-7.12,0.632-10.68,0.861l-5.455,0.316l-5.254,0.345l-5.857,0.258l-6.173,0.287
		c-3.905,0.201-7.781,0.717-11.657,1.234c-4.02,0.517-8.039,1.004-12.058,1.465l-3.905,0.374c-2.584,0.258-5.196,0.488-7.81,0.833
		c-4.192,0.488-8.355,1.465-12.374,2.814c-2.326,0.804-4.566,1.837-6.833,2.843l-1.177,0.517
		c-5.742,2.556-10.767,6.116-14.556,10.279c-2.498,2.756-4.996,5.512-7.436,8.326l-0.688,0.775
		c-3.331,3.789-6.805,7.723-10.795,10.996c-2.756,2.01-5.312,3.56-7.867,4.737c-1.32,0.488-2.613,0.833-4.02,1.12H31.61
		l-1.149-0.029c-0.688-0.172-1.349-0.374-2.01-0.603c-1.062-0.574-2.039-1.206-3.043-1.924c-1.924-1.55-3.446-2.986-4.795-4.564
		c-0.43-0.661-0.833-1.32-1.177-2.01c-0.172-0.517-0.345-1.004-0.431-1.55c-0.029-0.316-0.029-0.632,0-0.976
		c0.144-0.545,0.316-1.091,0.488-1.636c1.004-2.097,2.268-4.163,4.019-6.546c1.608-1.981,3.244-3.905,4.909-5.857l2.211-2.584
		l0.977-1.177l0.948-1.177l1.004-1.234c0.775-0.948,1.55-1.895,2.24-2.872c1.608-2.268,3.159-4.537,4.564-6.919
		c1.004-1.723,1.952-3.446,2.843-5.254c1.895-3.847,3.876-8.326,3.072-12.605c-0.115-0.861-0.374-1.608-0.804-2.297
		c-0.258-0.717-0.69-1.378-1.866-2.383c-0.833-0.661-1.665-1.32-2.584-1.837c-1.465-0.775-2.986-1.407-4.537-2.039
		c-2.182-0.89-4.421-1.636-6.69-2.211l-1.895-0.459c-5.685-1.407-11.57-2.872-17.083-5.111c-0.705-0.34-1.37-0.702-2.131-1.188
		c0.136,0.11,0.273,0.218,0.437,0.328c-0.165-0.083-0.303-0.217-0.442-0.329c-0.137-0.088-0.276-0.178-0.42-0.273l-0.517-0.632
		c0-0.009,0.012-0.092,0.029-0.2c0,0,0-0.001,0-0.002s0.001-0.003,0.001-0.006c0.033-0.221,0.085-0.54,0.085-0.54
		c0.717-1.579,1.522-3.043,2.498-4.508c0.919-1.091,1.866-2.068,2.957-3.015c0.89-0.661,1.752-1.206,2.756-1.723
		c0.12-0.036,0.241-0.076,0.366-0.117c-0.016,0-0.033,0.001-0.05,0.001c0.024-0.003,0.05-0.007,0.074-0.009
		c0.166-0.052,0.338-0.102,0.529-0.134h0.459c0,0,0,0,0.014,0.014c0.003,0.003,0.008,0.008,0.015,0.014
		c0.114,0.028,0.228,0.059,0.344,0.089c0.239,0.03,0.472,0.072,0.72,0.113c-0.189-0.016-0.369-0.04-0.55-0.069
		c1.15,0.317,2.296,0.763,3.422,1.189l2.039,0.775c1.493,0.574,3.015,1.12,4.537,1.636l4.421,1.608l5.455,1.981
		c3.589,1.579,7.178,3.186,10.738,4.88c3.101,1.436,6.087,3.072,9.072,4.68l0.861,0.488l3.015,1.636
		c2.182,1.206,4.393,2.411,6.632,3.502l1.924,0.919l3.991,1.952c1.493,0.717,3.043,1.32,4.593,1.952l2.411,0.976
		c3.273,1.349,6.69,2.411,10.106,3.474l0.775,0.258c1.235,0.374,2.527,0.688,3.79,1.033l0.919,0.229
		c2.326,0.603,4.852,0.833,7.035,0.976c0.89,0.086,1.752,0.086,2.67,0.086h1.32c4.393,0,8.929-0.718,11.944-1.292
		c3.934-0.746,7.838-1.579,11.771-2.44c5.168-1.235,10.365-2.354,15.562-3.502l0.976-0.229l0.804-0.172
		c5.273-1.126,10.728-2.283,16.167-3.087c3.226-0.389,6.698-0.588,10.62-0.588c3.761,0,7.522,0.172,11.283,0.374
		c3.271,0.196,6.562,0.392,9.857,0.675c0.567,0.038,1.131,0.083,1.698,0.122c-0.013,0.013-0.029,0.023-0.042,0.036
		c0.029,0,0.058,0,0.086,0c-2.727,2.613-4.795,6-6.116,8.326c-0.89,1.608-1.579,3.359-2.24,5.053
		c-0.196,0.505-0.369,1.013-0.618,1.572c-0.003-0.001-0.006-0.002-0.01-0.003c-0.012,0.023-0.022,0.045-0.032,0.068
		c-0.374-0.087-0.746-0.143-1.149-0.172L187.338,410.311z M210.507,416.197c-0.431,2.326-0.861,4.709-1.665,7.006
		c-0.345,0.775-0.717,1.465-1.177,2.211c-0.029,0-0.603,0.517-0.632,0.517c-2.095-0.459-4.134-1.206-5.684-1.809
		c-0.258-0.114-0.488-0.258-0.746-0.374c-0.058-0.029-0.087-0.029-0.143-0.058c0.029,0,0.087,0.029,0.115,0.029
		c-0.89-0.459-1.752-0.919-2.613-1.465c-0.69-0.574-1.292-1.206-1.895-1.924c-0.201-0.316-0.402-0.632-0.545-0.948
		c-0.258-0.717-0.43-1.436-0.603-2.211c-0.029-0.833-0.029-1.608,0.058-2.469c0.402-1.837,0.976-3.733,1.781-5.771
		c0.976-2.211,2.211-4.393,3.79-6.632c0.976-1.234,1.981-2.326,3.186-3.388c0.545-0.374,1.091-0.717,1.665-1.033
		c-0.058,0-0.115,0.029-0.172,0.058c0.058-0.029,0.115-0.058,0.172-0.087c0.137-0.059,0.254-0.129,0.374-0.196
		c0.296-0.123,0.594-0.262,0.89-0.349c-0.086,0-0.201,0.029-0.287,0.029c0.143-0.029,0.316-0.058,0.459-0.087l-0.488,0.029
		c0.345-0.087,0.69-0.144,1.32-0.144c0.201,0,0.402,0,0.661,0.029c0.229,0.029,0.488,0.058,0.717,0.058
		c0.265,0,0.532-0.039,0.797-0.097c0.013,0.003,0.024,0.007,0.036,0.01c0.029,0,0.086-0.029,0.115-0.029v-0.029
		c0.029,0,0.029,0.029,0.029,0.029l0.086,0.029c0.002-0.001,0.005-0.003,0.007-0.005l5.333,1.383l0.861,0.287
		c0.161,0.04,0.322,0.083,0.483,0.123c-0.008,0.007-0.016,0.013-0.024,0.021l0.086,0.029c-1.636,1.493-2.872,3.417-3.704,5.771
		c-1.062,3.043-1.665,6.173-2.297,9.647L210.507,416.197z M235.228,416.858c-0.345,0.89-0.632,1.781-0.948,2.67l-0.574,1.665
		c-0.43,1.292-0.919,2.613-1.407,3.905c-0.632,1.378-1.32,2.699-2.153,4.02c-0.43,0.517-0.89,1.004-1.665,1.636
		c-0.086,0.086-0.143,0.144-0.229,0.229c-0.058,0.058-0.143,0.086-0.23,0.144c-0.086,0.058-0.172,0.144-0.287,0.201
		c0.115-0.029,0.258-0.087,0.374-0.115c-0.143,0.058-0.258,0.087-0.374,0.143c-0.029,0-0.029,0.029-0.058,0.029l-0.201,0.058h-0.029
		c-0.086,0.029-0.172,0.058-0.258,0.058c-0.029,0-0.029,0-0.058,0l-0.258,0.058c-0.833-0.229-1.665-0.545-2.44-0.861
		c-1.378-0.661-2.642-1.378-3.934-2.211c-0.688-0.574-1.32-1.206-1.924-1.924c-0.201-0.287-0.374-0.603-0.517-0.919
		c-0.172-0.488-0.316-0.948-0.459-1.436c0.029-0.058,0.029-0.087,0.058-0.144c-0.003-0.013-0.006-0.028-0.009-0.04
		c0.262-0.865,0.484-1.749,0.727-2.745c0.316-1.349,0.545-2.699,0.804-4.077c0.172-0.948,0.345-1.924,0.574-2.899
		c0.43-1.895,0.861-3.761,1.465-5.628c1.349-1.636,2.872-3.159,4.564-4.564l0.201-0.058c0.006-0.006,0.012-0.008,0.016-0.014
		l1.534-0.503c0.932-0.31,1.716-0.855,2.316-1.61c0.003,0.001,0.007,0.001,0.01,0.002c0.029-0.029,0.029-0.029,0.029-0.029
		c0-0.029,0.029-0.029,0.058-0.029c0,0,0,0,0.029,0l0.017,0.003l0,0l1.561,0.313l1.608,0.287c1.436,0.287,2.872,0.488,4.335,0.661
		l1.895,0.229l2.584,0.43c0.393,0.051,0.791,0.072,1.186,0.12c-0.021,0.018-0.045,0.033-0.066,0.053l0.086,0.029
		c-1.694,1.55-3.072,3.474-4.306,5.283C237.381,411.488,236.376,414.044,235.228,416.858z M265.346,410.052
		c-1.263,2.124-2.211,4.422-3.417,7.264c-0.488,1.235-0.976,2.469-1.465,3.733c-0.459,1.235-0.948,2.498-1.465,3.733
		c-0.488,1.177-1.004,2.354-1.579,3.474c-0.546,1.149-1.235,2.211-1.952,3.244c-0.43,0.488-0.861,0.89-1.436,1.407
		c-0.144,0.115-0.316,0.258-0.488,0.401l-0.229,0.058c-0.029,0-0.029,0-0.029,0c-0.115,0.029-0.201,0.058-0.316,0.087
		c-0.029,0-0.029-0.029-0.058-0.029l-0.115,0.029c-1.55-0.746-3.043-1.608-4.479-2.584c-0.69-0.574-1.32-1.149-1.924-1.837
		c-0.603-0.861-1.091-1.665-1.837-3.215c-0.229-0.603-0.374-1.177-0.401-1.779c0,0,0,0.029-0.029,0.029
		c0-0.229-0.029-0.459-0.029-0.661c0-0.02,0-0.038,0-0.058c0-0.517,0-1.033,0.058-1.55c0.316-1.521,0.775-2.928,1.349-4.335
		c0.086-0.172,0.172-0.374,0.258-0.545c1.062-2.211,2.326-4.278,3.905-6.345l0.194-0.226l0,0l0.323-0.376
		c1.493-0.976,3.043-1.752,4.651-2.469c0.688-0.402,1.206-0.919,1.608-1.579l0.339-0.548c0.008-0.02,0.015-0.039,0.022-0.059
		l-0.075-0.025c0.029-0.029,0.058-0.058,0.086-0.058l0.018,0.002l0,0l3.628,0.314l3.015,0.229l3.215,0.345
		c0.412,0.032,0.821,0.06,1.232,0.091c-0.003,0.022-0.027,0.027-0.027,0.053h0.086C267.04,407.296,266.293,408.531,265.346,410.052z
		 M288.114,414.503c-0.775,1.837-1.493,3.704-2.211,5.57l-1.436,3.646c-0.746,1.694-1.636,3.273-2.67,4.852
		c-0.546,0.632-1.12,1.206-1.808,1.752c-0.287,0.229-0.632,0.431-1.004,0.545c0.029,0,0.029,0,0.058,0
		c-0.215,0.076-0.438,0.145-0.661,0.21c-0.047,0.016-0.095,0.033-0.143,0.048c0.035-0.012,0.069-0.024,0.104-0.037
		c-0.181,0.052-0.361,0.103-0.535,0.152c0,0,0,0-0.029,0c-0.01,0-0.182-0.008-0.392-0.018c-0.031,0.005-0.063,0.01-0.096,0.018
		c-0.058,0-0.144,0-0.23,0.029c0.058-0.029,0.143-0.029,0.201-0.029c0.029,0,0.029,0,0.029,0s-0.001-0.001-0.024-0.024
		c-0.055-0.002-0.111-0.006-0.166-0.008c0.006,0.001,0.012,0.002,0.017,0.003c-0.008-0.001-0.016-0.002-0.023-0.003
		c-0.265-0.013-0.51-0.025-0.522-0.025c-0.374-0.086-0.746-0.172-1.091-0.287c-0.717-0.345-1.32-0.717-1.981-1.206
		c-0.287-0.258-0.517-0.517-0.861-0.919c-0.488-0.603-0.861-1.263-1.149-2.01c-0.172-0.488-0.345-0.948-0.43-1.465
		c-0.086-1.12-0.058-2.153,0.029-3.273c0.287-1.177,0.603-2.297,1.004-3.417c0.517-1.177,1.033-2.326,1.636-3.446
		c0.717-1.349,1.579-2.584,2.872-4.393l1.263-1.781c0.69-0.488,1.378-0.948,2.067-1.407c0.255-0.178,0.515-0.393,0.79-0.637
		c0.002,0,0.006,0,0.008,0c0.031-0.028,0.061-0.053,0.092-0.081h0.075h0.987c2.067,0,4.163-0.029,6.23-0.086
		c1.378-0.029,2.727-0.087,4.105-0.172c0.018,0,0.036,0.009,0.054,0.018l0,0c0.01,0.006,0.022,0.01,0.032,0.01
		c0,0.029,0,0.058-0.029,0.087C290.783,408.847,289.521,411.23,288.114,414.503z M373.442,398.769l1.004,0.115
		c3.905,0.603,7.81,1.177,11.686,1.723c3.905,0.545,7.867,1.091,11.8,1.378c4.25,0.287,8.498,0.545,12.748,0.717
		c2.843,0.144,5.657,0.201,8.469,0.287l2.124,0.029l2.097,0.087c2.383,0.086,4.795,0.144,7.206,0.144l2.814-0.029
		c4.019-0.115,8.182-0.23,12.26-0.833l6-0.861c1.263-0.172,2.527-0.43,3.79-0.717l2.039-0.431c3.704-0.717,7.436-1.493,11.111-2.383
		c1.866-0.459,3.675-1.062,5.455-1.723c1.924-0.746,3.704-1.723,5.196-2.584c0.029,0,0.459,0.402,0.488,0.431
		c0.258,0.374,0.488,0.775,0.717,1.206c0.545,1.55,0.919,3.101,1.263,4.766c0.287,2.24,0.374,4.02,0.287,5.742
		c-0.258,1.235-0.545,2.411-0.948,3.56l-0.545,0.603c-1.062,0.717-2.153,1.32-3.302,1.866c-3.302,1.32-6.804,2.268-10.767,2.929
		c-4.335,0.488-8.728,0.717-13.064,0.948l-1.263,0.086c-3.417,0.172-6.776,0.431-10.566,0.717l-3.072,0.23
		c-6.775,0.517-13.781,1.062-21.159,1.062c-0.029,0-0.029,0-0.029,0c-4.393,0-8.814-0.058-13.207-0.115
		c-3.675-0.029-7.322-0.087-10.996-0.087c-4.938-0.058-9.847-0.058-14.758-0.058h-9.847c-3.618,0-7.235-0.058-10.853-0.087
		l-8.154-0.058c-6.488,0-13.006-0.058-19.494-0.172l-2.584-0.058c-4.709-0.086-9.446-0.201-14.184-0.201l-1.608,0.029
		c-3.072,0.029-5.886,0.201-8.671,0.574l-1.465,0.172c-0.948,0.115-1.866,0.229-2.814,0.345l-0.89,0.058
		c-0.815,0.051-1.676,0.126-2.762,0.322c-0.027,0.008-0.054,0.015-0.081,0.023c-0.112,0.032-0.202,0.105-0.309,0.145
		c0.016-0.039,0.036-0.076,0.051-0.118c-0.029,0.029-0.058,0.029-0.086,0.029c1.062-2.355,2.383-4.622,3.934-6.719
		c0.919-1.12,1.837-2.039,2.843-2.872c0.459-0.316,0.919-0.603,1.378-0.89c0.976-0.632,1.665-1.579,2.01-2.727c0,0,0,0,0.029,0
		c0-0.001,0-0.002,0-0.003c2.718-0.372,5.407-0.773,8.126-1.173c1.465-0.201,2.928-0.517,4.393-0.833l1.837-0.431
		c1.349-0.258,2.67-0.632,3.991-1.004l1.895-0.517c3.302-0.919,6.489-2.039,10.279-3.445l5.345-1.977l0,0l0.167-0.062
		c2.785,0.086,5.599,0.229,8.384,0.431l4.163,0.345c2.785,0.201,5.57,0.402,8.384,0.688
		C365.661,397.794,369.537,398.281,373.442,398.769z M459.633,362.14c-2.211,0.545-4.421,1.062-6.603,1.55l-2.469,0.545
		l-2.815,0.597h-0.028c-0.008-0.008-0.02-0.01-0.028-0.017c-0.003-0.002-0.007-0.006-0.01-0.008c0,0-0.001,0-0.002,0
		c-0.999-0.871-2.243-1.382-3.463-1.382c-0.488,0-0.976,0.087-1.436,0.229l-5.283,1.723l-7.752,2.469
		c-3.186,1.033-6.374,2.01-9.618,2.899c-4.564,1.264-9.274,2.124-13.638,2.699c-1.062,0.172-2.124,0.316-3.186,0.459h0.459
		c-3.618,0.43-7.206,0.632-10.566,0.632c-0.977,0-1.952,0-2.9-0.029l-3.446-0.115l-3.302-0.087
		c-2.153-0.086-4.335-0.144-6.489-0.144c-1.062,0-2.153,0-3.215,0.058c-3.761,0.114-7.465,0.43-11.198,0.833l-2.067,0.229
		c-3.13,0.345-6.287,0.688-9.36,1.235c-3.417,0.574-7.064,1.292-10.624,2.355c-3.244,0.976-6.432,2.039-10.336,3.331
		c-3.417,1.149-6.862,2.24-10.364,3.101l-1.465,0.374c-1.263,0.316-2.556,0.661-3.847,0.919l-3.13,0.574l-1.752,0.316l-1.206,0.201
		c-5.771,0.746-11.541,1.349-17.312,1.781c-2.928,0.229-5.915,0.316-8.872,0.316c-3.043,0-6.116-0.087-9.159-0.23
		c-5.886-0.287-11.743-0.574-17.628-1.062c-0.707-0.048-1.421-0.115-2.13-0.165c0.002-0.002,0.003-0.005,0.006-0.008
		c0,0-0.029,0-0.058,0l1.033-1.579c1.062-1.579,1.952-3.273,2.843-4.967c1.55-2.957,2.957-6.287,4.364-10.479
		c0.488-1.465,0.775-3.015,1.033-4.537l0.172-0.976c0.374-2.068,0.661-4.192,0.919-6.287c0.229-1.55,0.374-3.13,0.488-4.709
		c0.201-2.814-0.229-5.657-0.603-7.551c-0.43-2.411-1.378-4.766-2.297-7.064l-0.717-1.808c-1.808-4.651-3.847-8.585-6.202-12.002
		c-2.9-4.134-6.804-7.551-10.25-10.566l-4.45-3.962l-4.479-3.934l-2.584-2.182l-1.866-1.55c-4.221-3.531-8.182-6.345-12.058-8.613
		l-7.694-4.508l-3.159-1.866c-3.962-2.326-7.81-4.795-11.657-7.264c-2.383-1.522-4.766-3.043-7.149-4.537l-3.502-2.153
		c-1.752-1.062-3.502-2.124-5.225-3.244l-1.723-1.062c-1.149-0.717-2.268-1.436-3.359-2.211l-1.579-1.12l-3.186-2.24
		c-1.579-1.206-3.159-2.411-4.651-3.732l-3.502-3.101c-1.952-1.723-3.962-3.847-6.287-6.69c-2.469-3.244-4.421-6.403-5.971-9.618
		l-0.833-1.665l-1.636-3.359c-1.436-2.899-3.186-6.287-5.341-9.618c-2.095-3.13-4.824-6.144-8.068-8.929
		c-2.928-2.498-6.46-4.45-10.422-5.742c-1.895-0.603-3.876-0.89-5.915-1.149c-2.095-0.287-4.221-0.43-6.345-0.517
		c-0.833-0.029-1.694-0.029-2.527-0.029c-3.531,0-7.235,0.201-11.054,0.632c-2.124,0.229-4.25,0.574-6.432,0.976
		c-0.115,0.022-0.229,0.053-0.344,0.075c0-0.006,0-0.012,0-0.018c-0.029,0-0.058,0-0.086,0c-0.086-1.723-0.229-3.446-0.374-5.139
		l-0.201-2.211c-0.201-2.814-0.488-5.655-0.746-8.498l-0.258-2.641c-0.401-4.364-0.804-8.756-1.206-13.149l-0.603-6.575
		l-0.201-2.211c-0.545-5.915-1.149-12.03-1.206-18.031c-0.058-3.618-0.058-7.206,0.058-10.824c0.115-3.761,0.374-7.522,0.632-11.283
		c0.43-6.173,1.033-12.345,1.723-18.519c1.033-6.259,2.469-11.57,4.393-16.308c3.043-6.891,6.546-12.834,10.652-18.231
		c3.072-3.761,6.144-6.891,9.36-9.475c4.479-3.302,8.987-6,13.868-8.211c3.962-1.579,8.01-2.957,12.058-4.25
		c4.393-1.436,8.498-2.469,12.605-3.13c4.853-0.603,9.847-0.804,14.7-1.004c1.924-0.086,3.876-0.172,5.8-0.287
		c0.314,0,0.62-0.106,0.917-0.217c0.023,0.002,0.046,0.005,0.069,0.007c0.035-0.014,0.07-0.028,0.105-0.042
		c0-0.029,0.029-0.029,0.029-0.029c0.021,0.002,0.043,0.005,0.063,0.007c0.024,0.008,0.048,0.016,0.08,0.016
		c0.002-0.002,0.005-0.005,0.007-0.007c5.863,0.571,11.701,1.225,17.565,1.907c8.469,1.378,16.508,3.502,23.888,6.287
		c5.455,2.498,11.312,5.484,18.403,9.388c3.188,1.808,6.316,3.675,9.388,5.628c3.015,1.924,5.857,4.019,8.728,6.144
		c3.388,2.642,6.719,5.283,10.02,7.981c3.531,2.928,6.575,6.403,9.159,9.446l0.775,1.033c3.762,4.938,7.494,9.847,11.082,14.442
		c0.172,0.229,0.345,0.459,0.488,0.688c0.029,0,0.058,0,0.058,0.029l0.229,0.345c0.188,0.259,0.375,0.519,0.562,0.78
		c0.014,0.017,0.028,0.036,0.042,0.053c-0.012-0.014-0.022-0.029-0.033-0.043c1.94,2.704,3.77,5.461,5.575,8.311
		c0.948,1.522,1.895,3.043,2.928,4.508c1.636,2.326,3.359,4.564,5.139,6.804c1.004,1.292,2.24,2.44,3.446,3.56l0.746,0.69
		c3.101,2.986,6.575,5.426,10.02,7.091c3.502,1.694,7.235,2.843,10.853,3.934l2.986,0.948c2.756,1.292,5.426,2.641,8.097,4.105
		c2.756,1.55,5.341,3.244,7.953,5.053c5.025,4.105,9.331,8.097,13.178,12.231c3.221,3.48,6.443,7.269,9.933,11.808
		c0.692,0.875,1.378,1.754,2.06,2.636l-0.072-0.118c-0.163-0.215-0.328-0.434-0.494-0.661c0.163,0.217,0.326,0.435,0.489,0.653
		l-0.431-0.709l6.603,8.814c7.465,9.992,14.958,19.983,22.624,29.802c3.502,4.479,7.178,8.814,10.853,13.149l4.278,5.053
		l1.723,2.068c4.221,5.025,8.556,10.221,13.409,14.758c2.469,2.355,5.139,4.824,8.01,6.891l1.895,1.378l1.895,1.378
		c0.861,0.603,1.781,1.12,2.67,1.636l1.206,0.717c2.9,1.752,6.259,3.015,9.245,4.163c0.808,0.309,1.636,0.58,2.468,0.908
		c0.164,0.052,0.326,0.103,0.489,0.155c-0.014,0.01-0.028,0.02-0.042,0.029c0.023,0.01,0.046,0.018,0.07,0.029
		c-2.469,1.752-5.225,3.331-8.384,4.795c-0.878,0.337-1.756,0.672-2.816,0.969c-0.451,0.156-0.913,0.269-1.368,0.409
		c-0.057-0.008-0.113-0.035-0.17-0.04c-0.116,0.023-0.234,0.046-0.355,0.068c-0.806,0-1.653,0.293-2.446,0.79
		c-0.031,0.007-0.063,0.016-0.095,0.023c-0.053,0.035-0.106,0.07-0.158,0.106c-1.723,0.401-3.474,0.717-5.283,1.004
		c-4.163,0.401-8.355,0.717-12.518,0.919c-2.469,0.115-4.938,0.143-7.407,0.172l-4.651,0.115c-2.268,0.029-4.537,0.115-6.804,0.229
		l-5.426,0.201l-2.899,0.086c-2.613,0.086-5.225,0.143-7.81,0.143c-2.641,0-5.283-0.087-7.895-0.316
		c-3.417-0.574-6.804-1.177-10.221-1.809c-0.545-0.115-1.033-0.143-1.55-0.143c-1.004,0-1.866,0.201-2.699,0.69
		c-0.51,0.295-0.966,0.713-1.423,1.209c-0.014-0.001-0.028-0.001-0.042-0.002c0,0.029-0.029,0.058-0.058,0.086
		c-3.704-0.229-7.407-0.517-11.082-0.976c-5.111-0.833-10.308-2.24-15.417-4.25c-5.337-2.311-10.248-5.206-14.694-8.548
		c-2.815-2.33-5.258-4.764-7.385-7.473c-3.531-4.88-5.971-10.077-7.867-14.556c-1.493-3.704-2.785-7.494-3.962-11.254
		c-1.139-3.674-2.079-7.323-2.963-11.081c0.002,0,0.003-0.001,0.006-0.001c-0.029-0.029-0.029-0.058-0.029-0.086
		c0.804-0.258,1.608-0.545,2.383-0.861c1.952-0.804,3.789-1.866,5.943-3.388c2.355-1.694,4.393-3.359,6.173-5.139
		c1.407-1.407,1.407-3.818,0-5.254c-0.69-0.69-1.665-1.091-2.641-1.091c-0.948,0-1.752,0.316-2.641,1.091
		c-1.608,1.378-3.273,2.727-4.967,4.048c-1.952,1.436-3.56,2.411-5.225,3.159c-1.465,0.574-2.957,0.976-4.566,1.263
		c-1.062,0.086-2.153,0.144-3.215,0.144c-1.292,0-2.584-0.086-4.479-0.316c-0.459-0.086-0.89-0.143-1.32-0.229
		c-0.804-0.143-1.55-0.402-2.411-0.775c-1.407-0.688-2.67-1.436-3.934-2.354l-1.521-1.407c-0.33-0.274-0.634-0.55-0.962-0.825
		c0.016-0.003,0.032-0.005,0.048-0.008l-0.062-0.058l1.177-0.258c2.067-0.402,4.192-1.091,6.575-2.068
		c0.69-0.287,1.349-0.574,1.981-0.919c0.717-0.316,1.349-0.833,2.411-1.694c1.263-1.004,2.211-2.383,3.13-3.732l0.488-0.661
		c0.736-1.066,0.484-2.579-0.236-3.709c-0.072-0.089-0.144-0.174-0.223-0.254c-0.038-0.037-0.091-0.051-0.131-0.085
		c0.038,0,0.076,0,0.114,0c-0.022-0.029-0.045-0.058-0.068-0.086c0.919,0,1.895,0,2.814-0.23c1.808-0.459,3.56-1.177,5.657-2.411
		c1.407-0.861,1.895-2.727,1.062-4.134c-0.545-0.919-1.493-1.465-2.584-1.465c-0.517,0-1.062,0.143-1.55,0.374
		c-0.517,0.287-1.062,0.545-1.723,0.833c-0.746,0.258-1.522,0.459-2.355,0.661l-1.062,0.029l-1.32-0.143
		c-0.488-0.115-0.977-0.258-1.436-0.43c-0.488-0.23-0.948-0.517-1.407-0.804c-0.717-0.661-1.32-1.378-1.981-2.182
		c0,0-0.632-0.861-0.632-0.89c-0.459-0.603-0.976-1.206-1.924-1.465c-0.23-0.058-0.517-0.086-0.833-0.086
		c-0.574,0-1.12,0.144-1.608,0.402c-0.746,0.43-1.263,1.12-1.465,1.924c-0.201,0.69-0.172,1.752,0.316,2.44
		c1.004,1.378,2.068,2.727,3.215,3.991c0.517,0.574,1.177,1.033,2.24,1.752c0.69,0.431,1.493,0.746,2.24,1.033l0.439,0.256
		c0.025,0.01,0.052,0.021,0.078,0.031c0.056,0.014,0.113,0.032,0.17,0.047c-0.027,0.012-0.057,0.006-0.083,0.018l0.085,0.05
		c-0.374,0.143-0.69,0.374-1.234,1.062l-0.804,1.062c-0.459,0.574-1.004,1.091-1.694,1.694c-0.661,0.459-1.32,0.804-2.01,1.149
		c-1.32,0.545-2.67,1.062-4.019,1.493c-1.407,0.459-2.9,0.775-4.393,1.033c-0.546,0.058-1.091,0.086-1.636,0.086
		s-1.091-0.029-1.636-0.086c-0.752-0.159-1.467-0.338-2.161-0.605c-0.11-0.032-0.219-0.065-0.33-0.099l0.141,0.086
		c0.145,0.062,0.286,0.125,0.427,0.187c-0.118-0.044-0.232-0.091-0.346-0.137l0.317,0.195c-0.603-0.229-1.177-0.488-1.752-0.804
		c-0.517-0.459-0.948-0.919-1.407-1.465c-0.688-1.033-1.292-2.039-1.837-3.159c-0.316-0.804-0.603-1.579-0.833-2.411
		c-0.401-1.407-1.694-2.383-3.158-2.383c-0.316,0-0.632,0.029-0.861,0.087c-0.804,0.229-1.522,0.775-1.952,1.55
		c-0.43,0.746-0.545,1.665-0.345,2.44c0.459,1.636,1.091,3.159,1.808,4.68c0.316,0.632,0.661,1.235,1.062,1.808
		c0.517,0.833,1.12,1.723,1.781,2.44c0.459,0.574,0.948,1.004,1.522,1.407c0.746,0.603,1.55,1.062,2.612,1.522
		c1.741,0.772,3.527,1.112,5.261,1.413c0.248,0.033,0.497,0.066,0.746,0.096c-0.01,0.015-0.025,0.028-0.035,0.043
		c0.029,0,0.058,0,0.086,0c-0.671,1.007-0.774,2.335-0.276,3.465c-0.005,0.002-0.008,0.006-0.012,0.008
		c0,0.029,0.029,0.058,0.029,0.086c-0.833,0.545-1.694,1.091-2.584,1.579c-2.182,1.263-4.479,2.355-6.776,3.417
		c-1.091,0.43-2.182,0.804-3.273,1.177c-1.033,0.345-2.095,0.603-3.675,0.746l-1.149,0.058c-0.661,0-1.349-0.058-2.01-0.172
		c0.029,0,0.058,0,0.086,0s0.058,0,0.058,0s0,0,0.029,0s0.086,0,0.172,0c-0.086-0.029-0.143-0.029-0.229-0.058
		c-0.115,0-0.258-0.029-0.374-0.058c0.006,0,0.012,0,0.018,0c-2.237-0.506-4.01-0.988-5.616-1.636
		c-0.976-0.459-1.866-0.976-2.727-1.579c-1.579-1.349-2.872-2.872-4.68-5.025c-0.632-0.89-1.206-1.752-1.752-2.699
		c-0.488-0.833-0.89-1.752-1.55-3.244c-1.55-4.163-2.153-8.585-2.727-12.891l-0.201-1.32c-0.058-0.402-0.316-0.861-0.717-1.263
		c0,0,0.029-0.029,0.086-0.029c-0.016-0.016-0.032-0.024-0.048-0.039c0.11-0.016,0.221-0.025,0.33-0.04
		c0.054-0.014,0.092-0.027,0.092-0.035c0-0.029,0.517-0.115,0.545-0.143c2.268-0.345,4.508-1.004,6.862-1.981
		c0.89-0.374,1.752-0.804,2.584-1.292c0.804-0.459,1.521-1.149,2.182-1.808c0.488-0.459,0.89-1.033,1.292-1.579l0.459-0.632
		c0.43-0.574,0.775-1.206,1.149-1.837l0.459-0.775c0.688-1.263,0.287-2.843-0.948-3.589c-0.402-0.229-0.833-0.345-1.292-0.345
		c-0.919,0-1.781,0.488-2.44,1.579c-0.603,0.948-1.177,1.866-1.837,2.756c-0.401,0.517-0.833,1.004-0.775,1.033
		c-0.603,0.459-1.206,0.861-1.866,1.206l-1.579,0.775c-1.062,0.43-2.124,0.804-3.215,1.149c-1.436,0.402-2.928,0.69-4.364,0.919
		c-0.459,0.029-0.919,0.058-1.694,0.058c-0.172,0-0.316,0-0.488,0c-0.632-0.029-1.292-0.086-1.924-0.172
		c-0.69-0.086-1.378-0.229-2.039-0.402c-0.746-0.201-1.465-0.43-1.665-0.517c-0.661-0.287-1.264-0.69-1.924-1.206
		c-0.43-0.488-0.804-1.062-1.12-1.665l-0.201-0.717c-0.058-1.493,0-2.899,0.115-4.393c0.058-0.517-0.115-1.004-0.488-1.436
		c-0.43-0.459-1.062-0.746-1.665-0.746c-1.378,0-2.095,1.091-2.182,2.182l-0.172,2.182c-0.115,1.235-0.086,2.268,0.058,3.072
		l0.258,1.206c0.23,0.545,0.488,1.091,0.775,1.579c0.374,0.69,1.004,1.349,1.895,2.326l1.407,1.062
		c0.316,0.201,0.632,0.374,0.976,0.545l1.608,0.69c1.12,0.374,2.211,0.632,3.359,0.833c0.488,0.095,0.984,0.164,1.455,0.291
		c0.445,0.048,0.893,0.088,1.334,0.127c-0.092,0.115-0.214,0.2-0.292,0.329c0.029,0,0.029,0.029,0.058,0.029
		c-0.459,0.804-0.402,1.55-0.287,2.383l0.115,0.976c0.43,2.957,0.833,5.944,1.436,8.872c0.717,3.302,2.01,6.69,4.02,10.365
		c0.69,1.292,1.636,2.498,2.584,3.675l0.919,1.149c1.32,1.665,2.642,3.015,4.048,4.163c0.948,0.775,1.952,1.436,3.043,2.01
		c1.234,0.632,2.613,1.12,3.905,1.55c0.43,0.144,0.89,0.287,1.349,0.488c0.029,0,0.029,0.029,0.058,0.029
		c-0.374,1.149-0.374,2.297-0.029,3.359l1.378,3.876l3.905,11.169c2.01,5.713,4.564,11.37,7.551,16.824
		c0.459,0.861,0.948,1.665,1.378,2.498c0.503,0.804,1.144,1.493,1.692,2.26c-0.218-0.018-0.436-0.038-0.654-0.058
		c0.008,0.022,0.016,0.044,0.024,0.066c-5.254-0.459-10.508-0.89-15.733-1.493c-8.126-1.149-15.791-3.13-22.797-5.915
		c-3.847-1.723-7.206-3.675-10.25-5.915c-2.584-2.124-4.909-4.479-7.12-7.149c-2.641-3.56-4.852-7.407-6.948-12.058
		c-1.805-4.457-3.143-9.295-4.148-15.225c-0.294-1.604-0.554-3.216-0.79-4.832v0.534c-0.459-3.733-0.661-6.632-0.661-9.388
		c0.029-3.188,0.316-6.403,0.603-9.56l0.115-1.465c0.086-0.948-0.258-1.866-0.948-2.641c-0.804-0.861-1.981-1.407-3.101-1.407
		c-2.182,0-3.847,1.665-4.048,4.048c-0.287,3.186-0.545,6.403-0.746,9.618c-0.258,3.962,0.058,7.838,0.374,10.795
		c0.258,2.641,0.661,5.283,1.091,7.895l0.172,1.12c0.488,3.388,1.177,6.748,2.039,10.02c1.636,6.116,4.163,12.087,7.494,17.801
		c1.636,2.756,3.732,5.512,6.374,8.442c2.411,2.727,5.369,4.967,8.182,7.006c2.153,1.55,4.651,2.928,8.068,4.479
		c3.331,1.522,6.833,2.872,10.393,4.02c6.69,2.095,13.723,3.072,20.327,3.789c5.685,0.603,11.456,0.919,17.599,1.263
		c2.016,0,3.897-1.063,5.238-2.857c0.04-0.058,0.055-0.129,0.093-0.188c0.013,0.009,0.024,0.021,0.038,0.03
		c0-0.029,0.029-0.029,0.029-0.058c6.471,4.923,14.301,8.582,22.69,10.647c0.046,0.02,0.089,0.043,0.136,0.062
		c0.115,0.029,0.258,0.058,0.374,0.086c0.114,0.058,0.229,0.087,0.345,0.144c0.009,0.002,0.018,0.002,0.027,0.005
		c0.688,0.285,1.387,0.56,2.069,0.828c2.153,0.804,4.335,1.407,6.546,1.952c1.493,0.345,3.043,0.603,4.564,0.861l1.665,0.287
		c2.411,0.459,4.795,0.861,7.207,1.177c2.641,0.374,5.312,0.545,7.953,0.545c6.804,0,13.236-1.177,19.122-3.446
		c1.013-0.281,1.921-0.828,3.092-1.982c0.003,0,0.006,0.001,0.009,0.002c0,0,0.029-0.029,0.058-0.058
		c1.636,0.258,3.273,0.459,4.88,0.632c2.383,0.287,4.795,0.545,7.178,0.69l4.967,0.316l4.967,0.287l0.78,0.06l0,0l0.34,0.025
		c0.087,0.029,0.201,0.058,0.287,0.087c0.017,0.001,0.035,0.002,0.053,0.002c3.599,1.056,6.647,1.73,9.508,2.035
		c4.622,0.545,9.36,0.574,14.643,0.603l1.837,0.029c2.986,0,5.944-0.058,8.929-0.172l1.033-0.029
		c3.244-0.115,6.546-0.258,9.762-0.632c3.502-0.402,8.126-0.976,12.69-1.895c4.163-0.833,7.867-1.608,11.456-2.843l1.423-0.51l0,0
		l0.099-0.036c1.004,0.545,1.952,1.091,2.899,1.752c3.934,3.273,7.781,6.776,11.456,10.422l0.775,0.804
		c1.579,1.579,3.188,3.186,4.853,4.709c2.124,2.01,4.421,3.761,6.632,5.369c2.211,1.665,4.537,3.244,6.833,4.795
		c1.694,1.149,3.388,2.297,5.053,3.502c1.718,1.21,3.423,2.433,5.026,3.683c1.67,1.221,3.321,2.466,4.968,3.715
		c-0.221-0.017-0.441-0.06-0.663-0.076c-0.031-0.001-0.063-0.003-0.095-0.006c0.031,0.03,0.063,0.061,0.095,0.091
		c-1.924-0.143-3.876-0.201-5.8-0.229l-3.331-0.086c-6.287-0.23-12.461-0.833-17.657-1.378l-4.077-0.603
		c-1.004-0.172-2.01-0.401-2.986-0.632l-1.522-0.345c-1.062-0.229-2.153-0.574-3.215-0.89l-0.89-0.287
		c-1.55-0.431-3.101-0.89-4.651-1.349c-5.025-1.493-10.25-2.641-15.303-3.761l-2.01-0.459c-4.795-1.062-9.533-2.24-14.298-3.417
		l-3.675-0.89c-2.498-0.603-4.967-1.177-7.494-1.665l-2.756-0.545c-3.331-0.632-6.632-1.264-10.652-1.866
		c-1.465,0-2.584,0.804-2.986,2.153c-0.201,0.775-0.029,1.752,0.459,2.498c0.402,0.632,0.976,1.033,1.608,1.12
		c4.45,0.746,8.872,1.636,13.264,2.527l1.837,0.345c1.062,0.229,2.124,0.517,3.159,0.775l1.665,0.459
		c2.44,0.632,4.88,1.264,7.349,1.866c7.494,1.924,14.987,4.048,22.423,6.287c2.498,0.775,4.967,1.723,7.436,2.67l3.388,1.263
		c1.752,0.632,3.445,1.235,5.225,1.752c1.837,0.517,3.675,0.948,6.173,1.55c3.589,0.775,7.264,1.349,10.938,1.924
		c4.077,0.661,8.182,1.12,12.316,1.55l2.027,0.298c0.431,0.046,0.86,0.09,1.292,0.136c-0.028,0.015-0.061,0.025-0.089,0.04
		l0.1,0.015c-0.545,0.316-1.062,0.661-1.608,1.091c-1.033,0.861-1.781,1.895-2.411,3.273c-0.258,0.632-0.459,1.292-0.746,2.01
		l-0.919-0.029h-1.407l-1.436,0.029l-2.928,0.058l-2.957,0.087c-3.302,0.058-6.575,0.115-9.876,0.115h-2.872
		c-4.306-0.058-8.613-0.143-12.92-0.488c-4.134-0.345-8.211-0.775-12.318-1.292c-9.791-1.493-18.519-3.015-26.702-4.68
		c-4.335-0.861-8.585-2.068-12.834-3.244c-5.082-1.436-10.135-2.928-15.705-4.479c-0.89,0-1.723,0.632-2.01,1.493
		c-0.258,1.062,0.374,2.182,1.465,2.527l11.427,3.474c4.709,1.436,9.417,2.872,14.126,4.278c2.957,0.89,6,1.608,8.986,2.326
		l2.326,0.574l5.599,1.378l5.599,1.407c7.293,1.808,14.814,3.244,22.366,4.277c3.515,0.503,7.251,0.886,11.636,1.297
		c0.934,0.07,1.871,0.106,2.806,0.167c-0.095,0.022-0.19,0.045-0.285,0.067c0.067,0.006,0.131,0.012,0.198,0.018L459.633,362.14z
		 M326.413,289.846c-1.521,0.115-3.072,0.201-4.622,0.201l-1.206-0.058c-0.017-0.015-0.035-0.029-0.052-0.044
		c-0.013,0-0.027-0.001-0.039-0.001c-0.669-0.589-1.407-0.993-2.234-1.131l-3.761-0.632c-8.126-1.349-16.537-2.756-24.26-5.857
		c-4.479-1.952-8.355-4.163-11.829-6.719c-2.354-1.952-4.421-3.991-6.287-6.173c-2.699-3.732-5.082-7.953-7.465-13.351
		c-2.383-5.628-4.421-11.485-6.403-17.112l-1.149-3.502c0.003,0,0.006-0.001,0.009-0.002v-0.001
		c2.812-0.775,5.651-1.951,9.207-3.786c2.431-1.259,4.864-2.891,7.723-5.118c0,0,0,0,0.001,0.001
		c0.009-0.008,0.018-0.014,0.029-0.022h0.029c0.029,0,0.029,0,0.058,0l0.022,0.017l0,0l0.81,0.615
		c1.694,1.177,3.789,2.124,6.259,2.843c1.636,0.488,3.417,0.69,5.685,0.948c0.948,0.115,1.866,0.143,2.814,0.143l0.506,0.082
		c0.105-0.001,0.21-0.018,0.315-0.022c0.006,0.024-0.002,0.048,0.003,0.073l0.066,0.01c1.837,7.723,3.818,14.556,6.058,20.901
		c3.015,8.413,6.116,14.843,9.762,20.27c3.388,5.025,8.039,9.475,14.643,14.039c1.424,0.973,2.888,1.888,4.374,2.808
		c0.336,0.19,0.705,0.319,1.045,0.504c-0.067,0.005-0.132,0.015-0.198,0.02C326.352,289.808,326.383,289.826,326.413,289.846z"/>
	<path style="fill:#161616;" d="M493.11,354.847c-0.024,0-0.051,0.006-0.075,0.007c-0.186,0.022-0.37,0.059-0.557,0.08
		C492.679,354.905,492.909,354.876,493.11,354.847z"/>
	<path style="fill:#161616;" d="M132.844,101.013c-2.383-2.153-5.312-2.584-7.35-2.584c-1.407,0-2.899,0.201-4.45,0.632
		c-1.694,0.517-3.56,1.636-5.283,3.159c-0.545,0.459-1.062,0.948-1.521,1.493l-0.058-0.058l-0.632,0.861l-1.608,2.039
		c-0.459,0.688-0.861,1.465-1.177,2.383c-0.545,1.55-0.775,2.814-0.775,3.905c0.029,1.636,0.201,2.986,0.574,4.192
		c0.229,2.211,0.717,3.962,1.436,5.398c0.89,1.781,1.981,3.159,3.446,4.364c2.039,1.694,4.622,2.612,7.436,2.612
		c1.349,0,2.727-0.201,4.105-0.603c3.186-0.948,6.058-3.388,8.498-7.207c2.153-3.474,3.072-7.665,2.411-11.254
		C137.266,106.67,135.457,103.339,132.844,101.013z"/>
	<path style="fill:#161616;" d="M297.99,184.649c0.374,0.488,0.746,0.976,1.149,1.436c0.402,0.345,0.861,0.661,1.436,1.004
		c0.775,0.459,1.752,0.69,2.584,0.861c0.603,0.115,1.206,0.201,1.808,0.287h1.292l1.12-0.143l1.12-0.172
		c1.694-0.201,3.474-0.661,5.742-1.407c1.809-0.632,2.785-2.355,2.326-4.077c-0.402-1.407-1.694-2.411-3.188-2.411
		c-0.287,0-0.574,0.058-0.861,0.115c-1.715,0.457-3.43,0.772-5.145,1.058c-0.459,0.084-0.94,0.149-1.459,0.149c0,0-0.717,0-0.746,0
		c-0.292-0.077-0.584-0.156-0.936-0.331c-0.1-0.031-0.201-0.065-0.298-0.099c-0.029,0-0.029,0-0.058-0.029
		c-0.02-0.036-0.039-0.072-0.059-0.107c-0.046-0.03-0.093-0.06-0.143-0.093c-0.143-0.287-0.316-0.574-0.43-0.89
		c-0.517-1.033-1.665-1.665-2.957-1.665c-0.661,0-1.263,0.144-1.781,0.431c-1.608,0.948-2.124,2.957-1.234,4.737
		C297.502,183.758,297.732,184.218,297.99,184.649z"/>
	<path style="fill:#161616;" d="M242.922,172.905c1.522,1.149,3.388,2.326,5.657,2.44c0.402,0,0.833,0.029,1.235,0.058
		c0.746-0.086,1.493-0.201,2.182-0.345c0.717-0.201,1.407-0.459,2.095-0.775c0.69-0.287,1.349-0.603,2.01-0.948
		c1.378-0.661,1.924-2.527,1.579-3.818c-0.258-0.861-0.833-1.579-1.579-2.039c-0.517-0.316-1.177-0.488-1.779-0.488
		c-0.316,0-0.574,0.058-0.833,0.144c-0.69,0.287-1.378,0.574-2.068,0.804c-0.574,0.23-1.206,0.374-1.752,0.374
		c-0.013,0-0.027,0-0.042,0c-0.14,0.022-0.28,0.04-0.419,0.058c-0.115,0-0.229,0.029-0.345,0.029
		c0.087-0.029,0.201-0.029,0.287-0.058c0.115,0,0.229-0.029,0.345-0.029c-0.01,0-0.02,0-0.029,0l-0.833-0.172
		c-0.746-0.402-1.436-0.861-2.124-1.407c-0.459-0.316-1.062-0.459-1.781-0.459c-0.287,0-0.69,0-0.976,0.086
		c-0.919,0.287-1.694,0.89-2.124,1.665c-0.488,0.804-0.632,1.808-0.374,2.727C241.515,171.758,242.118,172.331,242.922,172.905z"/>
	<path style="fill:#161616;" d="M313.494,220.623c-0.775,0.459-1.349,1.234-1.579,2.153c-0.229,0.89-0.114,1.808,0.345,2.584
		c2.297,3.761,5.139,7.838,9.847,8.039c0.003,0,0.007,0.022,0.01,0.035c0.031,0.104,0.078,0.572,0.104,0.597
		c0,0,0.058,0.632,0.058,0.661c0.115,0.775,0.201,1.55,0.374,2.354c0.172,1.091,0.517,2.211,0.89,3.502
		c0.717,2.268,2.095,4.048,3.475,5.628c1.263,1.436,3.015,2.756,5.369,4.077c2.095,1.149,4.422,1.694,6.23,2.01
		c1.436,0.287,2.872,0.43,4.335,0.43c0.804,0,1.608-0.058,2.411-0.143c2.182-0.229,4.421-0.804,6.775-1.723
		c2.153-0.833,4.048-2.01,5.713-3.618c0.661-0.574,1.177-1.349,1.694-2.095l0.459-0.661c0.488-0.661,0.861-1.436,1.521-2.843
		c0.861-1.723,0.374-3.647-1.177-4.566c-0.517-0.287-1.091-0.459-1.665-0.459c-1.177,0-2.297,0.632-2.928,1.636
		c-0.459,0.775-0.948,1.522-1.465,2.297c-0.632,0.717-1.263,1.349-2.01,1.952c-0.488,0.316-0.976,0.574-1.493,0.804
		c-1.837,0.69-3.733,1.235-5.828,1.636c-0.517,0.029-1.033,0.029-1.55,0.029c-0.804,0-1.579-0.029-2.383-0.086
		c-1.407-0.258-2.756-0.545-4.077-1.004c-1.062-0.517-2.039-1.091-3.043-1.781c-0.604-0.514-1.157-1.064-1.71-1.677
		c0.053,0.071,0.107,0.142,0.16,0.212c-0.085-0.098-0.166-0.201-0.243-0.304c-0.129-0.144-0.258-0.291-0.389-0.442
		c-0.201-0.287-0.374-0.574-0.545-0.89c-0.603-1.579-0.976-3.186-1.292-4.795l-0.058-0.201c-0.053-0.682-0.176-1.172-0.308-1.689
		c-0.012-0.028-0.04-0.051-0.053-0.077c0.01-0.003,0.021-0.003,0.031-0.008c-0.006-0.021-0.01-0.042-0.016-0.062
		c2.268-0.833,4.364-1.981,6.632-3.56c0.89-0.632,1.349-1.235,1.579-2.039c0.229-0.861,0.115-1.781-0.345-2.613
		c-0.603-1.004-1.781-1.694-2.986-1.694c-0.603,0-1.177,0.172-1.665,0.488c-1.378,0.89-2.756,1.665-4.766,2.556l-1.378,0.517
		c-0.775,0.287-1.665,0.488-2.756,0.632c-0.287,0.029-0.545,0.029-0.833,0.029l-1.062-0.115c-0.459-0.258-0.804-0.517-1.149-0.804
		l0.058-0.058c-0.201-0.172-0.374-0.345-0.517-0.517c-0.746-1.033-1.436-2.039-2.067-3.101c-0.661-1.062-1.837-1.694-3.015-1.694
		C314.585,220.164,314.01,220.307,313.494,220.623z"/>
	<path style="fill:#161616;" d="M335.63,210.202c1.436,1.206,3.273,1.866,5.025,2.411c1.091,0.316,2.268,0.459,3.589,0.459
		c2.354,0,4.709-0.488,7.264-1.033c0.976-0.172,1.837-0.804,2.383-1.723c0.632-1.004,0.833-2.268,0.545-3.331
		c-0.287-1.004-0.948-1.895-1.895-2.498c-0.632-0.345-1.263-0.517-2.01-0.517c-0.402,0-0.804,0.058-1.234,0.143
		c-0.69,0.086-1.349,0.201-2.44,0.402c-0.861,0.058-1.723,0.115-2.584,0.115l-0.775-0.029c-0.69-0.172-1.349-0.345-2.469-0.833
		c-0.603-0.603-1.149-1.206-1.924-2.153c-0.69-0.89-1.32-1.608-2.527-1.952c-0.402-0.115-0.775-0.143-1.149-0.143
		c-0.746,0-1.465,0.201-2.097,0.574c-0.919,0.545-1.636,1.465-1.952,2.527c-0.229,0.948-0.172,2.354,0.775,3.675
		C333.247,207.704,334.281,209.082,335.63,210.202z"/>
	<path style="fill:#161616;" d="M21.638,420.933c0.01-0.007,0.024-0.014,0.037-0.028c0.029-0.058,0.086-0.143,0.144-0.201
		C21.743,420.781,21.69,420.857,21.638,420.933z"/>
	<path style="fill:#161616;" d="M293.425,340.004c-0.89,0-1.694,0.603-1.924,1.436l-1.12,4.853
		c-1.349,5.857-2.699,11.714-3.991,17.628c-0.23,1.004,0.345,1.981,1.32,2.268l0.488,0.115v-0.058c0.833,0,1.579-0.574,1.781-1.378
		c1.781-7.465,3.56-14.93,5.283-22.423C295.521,341.382,294.918,340.348,293.425,340.004z"/>
	<path style="fill:#161616;" d="M302.124,338.941c-0.89,0-1.665,0.574-1.895,1.407l-1.004,4.306
		c-1.091,4.537-2.182,9.072-3.101,13.667c-0.229,1.033,0.316,1.952,1.263,2.24l0.459,0.115v-0.058c0.833,0,1.579-0.574,1.781-1.349
		c1.465-5.971,2.928-11.944,4.335-17.915C304.192,340.319,303.618,339.286,302.124,338.941z"/>
	<path style="fill:#161616;" d="M314.326,340.779c-0.804,0-1.493,0.517-1.723,1.292l-0.804,2.957
		c-2.211,8.154-4.45,16.308-6.575,24.491c-0.229,0.948,0.287,1.895,1.234,2.182l0.431,0.114v-0.058c0.804,0,1.55-0.545,1.752-1.32
		c1.694-6.575,3.474-13.178,5.283-19.754l2.095-7.694C316.25,342.042,315.705,341.095,314.326,340.779z"/>
	<path style="fill:#161616;" d="M326.184,344.999c-0.258-0.258-0.775-0.661-1.436-0.746l-1.149-0.058
		c-0.517,0.144-0.919,0.459-1.694,1.091l-1.981,1.608c-0.316,0.258-0.488,0.69-0.517,1.149c0,0.517,0.172,1.033,0.517,1.349
		c0.316,0.345,0.804,0.517,1.263,0.517c0.488,0,0.833-0.201,1.235-0.517l0.603-0.378c0.105-0.084,0.21-0.168,0.316-0.253
		c-0.001,0.018-0.002,0.038-0.005,0.057l0.09-0.057l-0.058,0.804l-0.058,0.775c-0.258,1.522-0.545,2.986-0.948,4.45l-0.603,2.153
		l-0.258,0.89l-1.895,6.403c-0.115,0.431-0.058,0.89,0.172,1.292c0.229,0.43,0.603,0.717,1.521,0.919
		c0.775,0,1.493-0.517,1.723-1.292c0.69-2.297,1.378-4.593,2.039-6.891c0.374-1.206,0.69-2.411,1.004-3.618
		c0.574-2.268,0.775-4.537,0.89-6.432c0.087-0.545,0.058-1.091-0.143-1.952C326.672,345.804,326.529,345.344,326.184,344.999z"/>
	<path style="fill:#161616;" d="M130.146,291.993c-0.374,0-0.717,0.086-1.004,0.229c-0.345,0.201-0.775,0.661-0.833,1.12
		c-0.804,4.737-1.579,9.504-2.326,14.269l-0.143,1.004l-0.316,2.068c-0.258,1.579-0.488,3.159-0.717,4.737
		c-0.172,1.033-0.316,2.039-0.459,3.072c-0.115,0.632-0.172,1.263-0.229,1.895c-0.115,0.833-0.172,1.665-0.172,2.527
		c0.029,0.661,0.086,1.32,0.201,1.952c0.029,0.459,0.115,0.89,0.488,1.263c0.316,0.345,0.804,0.517,1.263,0.517
		c0.488,0,1.004-0.201,1.349-0.603c0.316-0.345,0.459-0.746,0.401-1.177c-0.058-0.632-0.086-1.292-0.086-1.952
		c0.029-0.833,0.086-1.608,0.143-2.01c0.345-2.411,0.746-4.823,1.149-7.206l0.459-2.872c0.861-5.455,1.752-10.938,2.642-16.394
		c0.086-0.574,0.086-1.004-0.144-1.521C131.495,292.452,131.093,292.136,130.146,291.993z"/>
	<path style="fill:#161616;" d="M138.07,300.693c-0.976,0-1.752,0.746-1.752,1.752c-0.029,7.637-0.058,15.274-0.258,23.026
		c0,0.374,0.172,0.717,0.459,1.004c0.287,0.316,0.746,0.517,1.206,0.517c0.919,0,1.636-0.717,1.665-1.665
		c0.086-3.905,0.201-7.839,0.316-11.743c0.086-2.095,0.086-4.192,0.115-6.287v-2.095v-2.785
		C139.821,301.468,139.017,300.693,138.07,300.693z"/>
	<path style="fill:#161616;" d="M150.214,303.65c-0.919,0-1.636,0.717-1.665,1.665l-0.459,13.58l-0.459,13.781
		c0,0.374,0.172,0.717,0.459,1.004c0.287,0.316,0.746,0.517,1.206,0.517c0.919,0,1.636-0.717,1.665-1.665l0.459-13.638l0.459-13.58
		c0.029-0.431-0.115-0.833-0.459-1.149C151.133,303.851,150.673,303.65,150.214,303.65z"/>
	<path style="fill:#161616;" d="M160.838,309.593c-1.033,0-1.808,0.775-1.837,1.837l-0.229,6.862l-0.23,6.833l-0.229,7.12
		c0,0.374,0.172,0.746,0.459,1.062c0.345,0.374,0.833,0.574,1.349,0.574c1.004,0,1.781-0.746,1.808-1.808
		c0.345-6.058,0.517-12.087,0.69-18.117l0.058-2.527c0.029-0.459-0.115-0.919-0.459-1.264
		C161.842,309.794,161.355,309.593,160.838,309.593z"/>
	<path style="fill:#161616;" d="M173.9,322.8c-0.402-1.436-1.033-2.785-1.781-4.422c-0.258-0.488-0.833-0.804-1.493-0.804
		c-0.316,0-0.632,0.058-0.861,0.201c-0.374,0.229-0.661,0.632-0.804,1.349c-0.029,0.316,0.058,0.603,0.201,0.976
		c0.23,0.459,0.459,0.948,0.69,1.465l0.402,1.062c0.23,0.688,0.43,1.378,0.574,2.095c0.345,1.378,0.632,2.843,0.861,4.25
		c0.086,0.717,0.919,1.177,1.723,1.263v0.029l0.316-0.143c0.402-0.115,0.804-0.402,1.033-0.775c0.287-0.488,0.229-0.919,0.143-1.349
		C174.59,326.216,174.245,324.551,173.9,322.8z"/>
</g>
<g>
</g>
<g>
</g>
<g>
</g>
<g>
</g>
<g>
</g>
<g>
</g>
<g>
</g>
<g>
</g>
<g>
</g>
<g>
</g>
<g>
</g>
<g>
</g>
<g>
</g>
<g>
</g>
<g>
</g>
</svg>
